<svg width="0" height="0" class="hidden">
  <symbol fill="none" xmlns="http://www.w3.org/2000/svg" viewBox="0 0 99 40" id="icon-brands-bosh">
    <path fill-rule="evenodd" clip-rule="evenodd" d="M42.2682 19.6559C43.5006 19.1766 44.2994 17.9899 44.2765 16.6891C44.2765 14.019 42.3823 12.6953 39.7807 12.6953H32.957V27.2098H40.374C42.6562 27.2098 44.8927 25.6123 44.8927 23.1704C44.8927 20.2721 42.2682 19.6787 42.2682 19.6559ZM36.5172 15.7078H39.1645C39.872 15.6621 40.4882 16.2098 40.5338 16.9173C40.5338 16.9629 40.5338 17.0314 40.5338 17.0771C40.511 17.8302 39.9176 18.4007 39.1645 18.4007H36.4944L36.5172 15.7078ZM39.1873 24.1746H36.54V21.3219H39.1189C40.4197 21.3219 41.0359 21.8924 41.0359 22.7368C41.0359 23.7866 40.2599 24.1746 39.1873 24.1746Z" fill="#ED0007"></path>
    <path fill-rule="evenodd" clip-rule="evenodd" d="M52.742 12.3301C48.5429 12.3301 46.0781 15.6849 46.0781 19.9297C46.0781 24.1745 48.5429 27.5293 52.742 27.5293C56.9412 27.5293 59.4059 24.1973 59.4059 19.9297C59.4059 15.662 56.964 12.3301 52.742 12.3301ZM52.742 24.0604C50.6881 24.0604 49.6611 22.2118 49.6611 19.9297C49.6611 17.6475 50.6881 15.8218 52.742 15.8218C54.796 15.8218 55.8458 17.6703 55.8458 19.9297C55.8458 22.2346 54.796 24.0604 52.742 24.0604Z" fill="#ED0007"></path>
    <path fill-rule="evenodd" clip-rule="evenodd" d="M67.1444 18.402L66.6423 18.2878C65.4099 18.0368 64.4286 17.7173 64.4286 16.8273C64.4286 15.8688 65.3643 15.4808 66.1859 15.4808C67.327 15.5036 68.3996 15.9829 69.1527 16.8273L71.412 14.5908C70.385 13.4269 68.7191 12.3086 66.1174 12.3086C63.0593 12.3086 60.7315 14.0202 60.7315 16.8729C60.7315 19.4746 62.6029 20.7526 64.885 21.2318L65.3871 21.3459C67.2813 21.7339 67.9888 22.0306 67.9888 22.9434C67.9888 23.8107 67.2128 24.3812 66.0261 24.3812C64.6112 24.3812 63.3332 23.765 62.3519 22.5098L60.0469 24.792C61.3249 26.321 62.9452 27.5078 66.0718 27.5078C68.7875 27.5078 71.6859 25.9559 71.6859 22.7837C71.7315 19.4746 69.2212 18.8356 67.1444 18.402Z" fill="#ED0007"></path>
    <path fill-rule="evenodd" clip-rule="evenodd" d="M79.8101 24.0629C78.2126 24.0629 76.5466 22.7393 76.5466 19.8409C76.5466 17.2621 78.0985 15.8243 79.7188 15.8243C80.9968 15.8243 81.7499 16.4177 82.3433 17.4447L85.2644 15.5048C83.8039 13.2912 82.0694 12.3555 79.6732 12.3555C75.2914 12.3555 72.918 15.7559 72.918 19.8638C72.918 24.177 75.5424 27.5546 79.6275 27.5546C82.503 27.5546 83.8723 26.5505 85.3557 24.4053L82.4117 22.4198C81.8184 23.3783 81.1794 24.0629 79.8101 24.0629Z" fill="#ED0007"></path>
    <path fill-rule="evenodd" clip-rule="evenodd" d="M95.0087 12.6953V18.0356H90.6042V12.6953H86.793V27.2098H90.6042V21.4816H95.0087V27.2098H98.8199V12.6953H95.0087Z" fill="#ED0007"></path>
    <path d="M11 9C4.92946 9 0 13.9295 0 20C0 26.0705 4.92946 31 11 31C17.0705 31 22 26.0705 22 20C22 13.9295 17.0705 9 11 9ZM11 29.973C5.5 29.973 1.02697 25.5 1.02697 20C1.02697 14.5 5.5 10.027 11 10.027C16.5 10.027 20.973 14.5 20.973 20C20.973 25.5 16.5 29.973 11 29.973Z" fill="black"></path>
    <path d="M15.5424 13.1328H14.7893V16.8984H7.23536V13.1328H6.45943C2.67104 15.6432 1.62125 20.7324 4.13163 24.5436C4.74781 25.4793 5.54656 26.278 6.45943 26.8714H7.23536V23.1058H14.7893V26.8714H15.5424C19.3308 24.361 20.3806 19.2718 17.893 15.4834C17.2769 14.5478 16.4781 13.749 15.5424 13.1328ZM6.18557 25.388C3.21876 22.7407 2.9449 18.1764 5.59221 15.2096C5.77478 15.0042 5.98017 14.7988 6.18557 14.6162V25.388ZM14.7893 22.0561H7.23536V17.9253H14.7893V22.0561ZM15.8163 25.3652V23.083V16.8984V14.6162C18.7831 17.2863 19.0341 21.8507 16.364 24.8175C16.1814 25 15.9988 25.1826 15.8163 25.3652Z" fill="black"></path>
  </symbol>
  <symbol fill="none" xmlns="http://www.w3.org/2000/svg" viewBox="0 0 114 40" id="icon-brands-electrolux">
    <g clip-path="url(#clip0_1_820)">
      <path d="M0.118408 33H26.1166V7H0.118408V33ZM16.7818 8.98616C21.3771 10.492 24.6976 14.8485 24.7101 19.9954C24.7228 25.0583 21.4689 29.4046 16.7818 31.0101V8.98616ZM13.113 8.39708C13.9434 8.39708 14.8274 8.50769 15.5641 8.6545C15.5641 14.5447 9.86767 19.392 3.98819 19.392L1.52964 19.3885C1.93273 13.3502 6.929 8.39708 13.113 8.39708ZM3.99016 20.6185C9.86849 20.6185 15.5631 25.4612 15.5631 31.3457C14.8274 31.4959 13.8994 31.6074 13.113 31.6074C6.92686 31.5991 1.76172 26.6304 1.528 20.6185H3.99016Z" fill="#2A2B49"></path>
      <path d="M34.8192 22.2849V20.646H40.2288V18.5565H34.8181V15.5148H40.5736V13.4309H32.6038V17.9098V22.1901C32.6038 24.4042 33.5471 25.919 35.7605 26.2301C35.8051 26.2411 35.8487 26.2492 35.8889 26.25H35.9296C36.156 26.2752 36.388 26.2923 36.6304 26.2923H40.7275V24.2105H36.6488C35.9449 24.2105 34.8192 23.8634 34.8192 22.2849Z" fill="#2A2B49"></path>
      <path d="M42.3008 19.5082V26.2954H44.5162V19.4639V13.4276H42.3008V19.5082Z" fill="#2A2B49"></path>
      <path d="M50.8681 16.6963C48.068 16.6963 45.9724 18.6252 45.9724 21.629V21.7032C45.9724 24.6332 47.994 26.5247 50.9239 26.5247C52.3332 26.5247 53.6498 26.1353 54.8551 24.8559L53.5202 23.5577C52.8153 24.2624 52.1292 24.6332 50.998 24.6332C49.3476 24.6332 48.2535 23.6688 48.1793 22.1853H55.4486C55.4858 21.8145 55.4858 21.4066 55.4858 21.4066C55.4858 18.7917 53.6498 16.6963 50.8681 16.6963ZM48.2351 20.6276C48.3278 19.4965 49.4775 18.588 50.8681 18.588C52.1661 18.588 53.2231 19.5151 53.2231 20.6276H48.2351Z" fill="#2A2B49"></path>
      <path d="M61.7105 18.6806C62.7121 18.6806 63.4537 19.0514 64.0841 19.7004L65.4565 18.2726C64.3809 17.1229 63.1012 16.6592 61.7105 16.6592C58.8917 16.6592 56.6296 18.7547 56.6296 21.6106C56.6296 24.4664 58.8917 26.5619 61.7105 26.5619C63.1012 26.5619 64.3809 26.0984 65.4565 24.9485L64.0841 23.5205C63.4537 24.1695 62.7121 24.5405 61.7105 24.5405C60.0785 24.5405 58.836 23.298 58.836 21.6106C58.836 19.9233 60.0785 18.6806 61.7105 18.6806Z" fill="#2A2B49"></path>
      <path d="M69.0507 22.288L69.048 22.2879V19.0027H71.0631V16.9901H69.0509V13.4276H66.8354V18.0431V22.4187L66.8417 22.4182C66.9049 24.5084 67.8551 25.9328 69.9922 26.2332C70.0368 26.2442 70.0803 26.2525 70.1206 26.2531H70.1613C70.3878 26.2781 70.6197 26.2954 70.862 26.2954H71.0964L71.1044 24.2136H70.8802C70.1764 24.2136 69.0507 23.8667 69.0507 22.288Z" fill="#2A2B49"></path>
      <path d="M75.1243 18.3745V16.9909H72.927V21.5507V26.2953H75.1243V21.4028C75.1243 19.8706 76.1027 18.9104 77.6347 18.9104C77.9853 18.9104 78.2997 18.9471 78.5579 19.0029V16.8612C78.4654 16.8429 78.1338 16.8064 77.894 16.8064C76.5639 16.8064 75.5669 17.4155 75.1243 18.3745Z" fill="#2A2B49"></path>
      <path d="M83.9745 16.7139C81.1496 16.7139 78.897 18.8549 78.897 21.6431C78.897 24.4299 81.1496 26.5723 83.9745 26.5723C86.7801 26.5723 89.0513 24.4299 89.0513 21.6431C89.0513 18.8549 86.7801 16.7139 83.9745 16.7139ZM83.9745 24.5603C82.3314 24.5603 81.095 23.2861 81.095 21.6431C81.095 19.9995 82.3314 18.7259 83.9745 18.7259C85.5996 18.7259 86.854 19.9995 86.854 21.6431C86.854 23.2861 85.5996 24.5603 83.9745 24.5603Z" fill="#2A2B49"></path>
      <path d="M90.4136 19.2863V26.2954H92.63V19.3752V13.4276H90.4136V19.2863Z" fill="#2A2B49"></path>
      <path d="M100.62 22.3995C100.62 23.8762 99.7524 24.5046 98.5885 24.5046C97.4255 24.5046 96.5583 23.8762 96.5583 22.4189V16.9909H94.3242V19.686V22.6031C94.3242 25.2619 96.2625 26.5357 98.5708 26.5357C100.897 26.5357 102.853 25.2437 102.853 22.5476V19.6858V16.9909H100.62V22.3995Z" fill="#2A2B49"></path>
      <path d="M111.235 23.3197L109.838 21.3661L111.568 19.0095L113.05 16.9909H110.632L108.619 19.7785L106.588 16.9909H104.188L105.565 18.8732L107.401 21.3844L105.477 24.0645L103.875 26.2954H106.256L108.619 23.009L110.982 26.2954H113.364L111.235 23.3197Z" fill="#2A2B49"></path>
    </g>
    <defs>
      <clipPath id="clip0_1_820">
        <rect width="113.482" height="26" fill="white" transform="translate(0 7)"></rect>
      </clipPath>
    </defs>
  </symbol>
  <symbol fill="none" xmlns="http://www.w3.org/2000/svg" viewBox="0 0 112 40" id="icon-brands-zugel">
    <path d="M32.3339 10.8159C32.3339 10.2602 32.7969 9.76625 33.3835 9.76625C33.9392 9.76625 34.4022 10.2293 34.4022 10.8159C34.4022 11.4024 33.97 11.8963 33.3526 11.8963C32.7661 11.8963 32.3339 11.4024 32.3339 10.8159ZM4.11776 25.5722V25.5105L11.9899 13.9956V12.9151C11.9899 12.9151 11.9899 12.8842 11.959 12.8842H2.38899C2.38899 12.8842 2.35812 12.8842 2.35812 12.9151V14.3969C2.35812 14.3969 2.35812 14.4278 2.38899 14.4278H9.58193V14.4895L1.67896 26.0353V27.0849C1.67896 27.0849 1.67896 27.1158 1.70983 27.1158H12.0516C12.0516 27.1158 12.0825 27.1158 12.0825 27.0849V25.6031C12.0825 25.6031 12.0825 25.5722 12.0516 25.5722H4.11776ZM38.7241 12.8842C38.6933 12.8842 38.6933 12.8842 38.7241 12.8842L38.6933 21.312C38.6933 24.4609 37.3349 25.85 35.2356 25.85C33.3217 25.85 31.9017 24.4917 31.9017 21.312V12.9151C31.9017 12.9151 31.9017 12.8842 31.8708 12.8842H30.0494C30.0494 12.8842 30.0185 12.8842 30.0185 12.9151V21.2811C30.0185 25.6957 32.2104 27.3627 35.1432 27.3627C38.2302 27.3627 40.5455 25.5722 40.5455 21.1885V12.9151C40.5455 12.9151 40.5455 12.8842 40.5147 12.8842H38.7241ZM37.3041 11.8963C37.8907 11.8963 38.2918 11.4333 38.323 10.8468C38.323 10.2602 37.8599 9.73537 37.2733 9.76625C36.6867 9.76625 36.2545 10.2602 36.2545 10.8159C36.2853 11.4024 36.6867 11.8963 37.3041 11.8963ZM65.1806 19.645C65.1498 19.645 65.1498 19.645 65.1806 19.645L65.1498 21.0959C65.1498 21.0959 65.1498 21.1268 65.1806 21.1268H68.0208C68.0208 21.1268 68.0516 21.1268 68.0516 21.1577V25.3561V25.387C67.6194 25.6031 66.8168 25.7574 65.6128 25.7574C62.2787 25.7574 60.1178 23.6273 60.1178 20.0154C60.1178 16.4344 62.3715 14.3043 65.8599 14.3043C67.2799 14.3043 68.2368 14.5821 68.9777 14.8908H69.0085L69.4408 13.4399V13.409C68.8234 13.1003 67.527 12.7607 65.9215 12.7607C61.1367 12.7607 58.2348 15.8787 58.2037 20.108C58.2037 22.3308 58.9754 24.2139 60.1794 25.4179C61.5686 26.7453 63.3592 27.301 65.5201 27.301C67.4342 27.301 69.0397 26.807 69.873 26.5292C69.873 26.5292 69.9038 26.5292 69.9038 26.4983V19.7067C69.9038 19.7067 69.9038 19.6759 69.873 19.6759H65.1806V19.645ZM84.3207 25.5722L84.2899 20.4785C84.2899 20.4785 84.2899 20.4476 84.3207 20.4476H89.8157C89.8157 20.4476 89.8465 20.4476 89.8465 20.4167V18.9349C89.8465 18.9349 89.8465 18.9041 89.8157 18.9041H84.3207C84.3207 18.9041 84.2899 18.9041 84.2899 18.8732V14.4587C84.2899 14.4587 84.2899 14.4278 84.3207 14.4278H90.1244C90.1244 14.4278 90.1552 14.4278 90.1552 14.3969V12.9151C90.1552 12.9151 90.1552 12.8842 90.1244 12.8842H82.4685C82.4685 12.8842 82.4377 12.8842 82.4377 12.9151V27.1158C82.4377 27.1158 82.4377 27.1466 82.4685 27.1466H90.4331C90.4331 27.1466 90.4639 27.1466 90.4639 27.1158V25.6339C90.4639 25.6339 90.4639 25.6031 90.4331 25.6031H84.3207V25.5722ZM110.438 25.5722H104.387C104.387 25.5722 104.356 25.5722 104.356 25.5413V12.8842C104.356 12.8842 104.356 12.8533 104.325 12.8533H102.535C102.535 12.8533 102.504 12.8534 102.504 12.8842V27.0849C102.504 27.0849 102.504 27.1158 102.535 27.1158H110.407C110.407 27.1158 110.438 27.1158 110.438 27.0849V25.5722C110.438 25.5722 110.438 25.6031 110.438 25.5722ZM21.282 6H49.2822V34H21.282V6ZM22.2082 33.0739H48.3561V6.92613H22.2082V33.0739Z" fill="#20283E"></path>
  </symbol>
  <symbol fill="none" xmlns="http://www.w3.org/2000/svg" viewBox="0 0 72 40" id="icon-brands-haier">
    <path d="M61.1484 24.1621C61.1703 23.899 61.1922 23.614 61.1922 23.3291C61.1922 19.098 57.6846 15.678 53.3658 15.678C49.0471 15.678 45.5394 19.098 45.5394 23.3291C45.5394 27.5601 49.0471 30.9801 53.3658 30.9801C56.6542 30.9801 59.4603 29.007 60.6222 26.2009L57.2461 25.5871C56.5008 26.9463 55.0977 27.867 53.4754 27.867C51.327 27.867 49.5513 26.2448 49.2005 24.1402H61.1484V24.1621ZM53.4754 18.8568C55.3169 18.8568 56.8734 20.0407 57.5092 21.7068H49.4417C50.0774 20.0187 51.6339 18.8568 53.4754 18.8568Z" fill="#231F20"></path>
    <path d="M43.435 15.9849H39.4451V30.695H43.435V15.9849Z" fill="#231F20"></path>
    <path d="M41.4391 10C40.2114 10 39.203 10.9865 39.203 12.2361C39.203 13.4638 40.1895 14.4722 41.4391 14.4722C42.6668 14.4722 43.6752 13.4857 43.6752 12.2361C43.6752 10.9865 42.6668 10 41.4391 10Z" fill="#231F20"></path>
    <path d="M14.9782 11.2717V19.1858H6.36261V11.2717H2V30.6952H6.36261V22.7811H14.9782V30.6952H19.3627V11.2717H14.9782Z" fill="#231F20"></path>
    <path d="M33.0225 16.0069V16.7961C31.8606 16.0946 30.5014 15.678 29.0326 15.678C24.8015 15.678 21.3596 19.098 21.3596 23.3291C21.3596 27.5601 24.8015 30.9801 29.0326 30.9801C30.4575 30.9801 31.7729 30.5855 32.9129 29.9278V30.6951H36.8151V16.0069H33.0225ZM29.2299 27.7574C26.7526 27.7574 24.7576 25.7844 24.7576 23.3291C24.7576 20.8956 26.7526 18.9007 29.2299 18.9007C31.7071 18.9007 33.7021 20.8737 33.7021 23.3291C33.7021 25.7625 31.7071 27.7574 29.2299 27.7574Z" fill="#231F20"></path>
    <path d="M69.4544 14.6257C65.7714 15.2615 62.9872 18.4841 62.9434 22.3425V30.7169H66.7579V22.189C66.7579 20.2379 68.2267 18.6376 70.1121 18.3964L69.4544 14.6257Z" fill="#231F20"></path>
  </symbol>
  <symbol fill="none" xmlns="http://www.w3.org/2000/svg" viewBox="0 0 91 40" id="icon-brands-hotpoint">
    <path d="M86.2794 34H4.66235C2.09806 34 0 31.9278 0 29.3377V10.6623C0 8.09806 2.07216 6 4.66235 6H86.2794C88.8437 6 90.9417 8.07216 90.9417 10.6623V29.3377C90.9158 31.9019 88.8437 34 86.2794 34Z" fill="black"></path>
    <path d="M19.2148 21.8264C19.2148 25.2454 20.8985 26.9808 24.2657 26.9808C27.6071 26.9808 29.2907 25.2454 29.2907 21.8264C29.2907 18.4073 27.6071 16.6719 24.2657 16.6719C20.9244 16.6719 19.2148 18.4073 19.2148 21.8264ZM21.6755 21.8264C21.6755 19.5729 22.4008 18.6663 24.2398 18.6663C26.1307 18.6663 26.83 19.547 26.83 21.8264C26.83 24.0798 26.1048 24.9864 24.2398 24.9864C22.3749 24.9864 21.6755 24.1316 21.6755 21.8264Z" fill="white"></path>
    <path d="M49.625 21.8264C49.625 25.2454 51.3345 26.9808 54.6759 26.9808C58.0172 26.9808 59.7009 25.2454 59.7009 21.8264C59.7009 18.4073 58.0172 16.6719 54.6759 16.6719C51.3345 16.6719 49.625 18.4073 49.625 21.8264ZM52.0857 21.8264C52.0857 19.5729 52.8109 18.6663 54.65 18.6663C56.5408 18.6663 57.2402 19.547 57.2402 21.8264C57.2402 24.0798 56.5149 24.9864 54.65 24.9864C52.785 24.9864 52.0857 24.1316 52.0857 21.8264Z" fill="white"></path>
    <path d="M77.707 14.5483V23.8989C77.707 25.8157 78.8467 26.8258 81.0225 26.8258H83.1464C83.6904 26.8258 83.9235 26.3337 83.9235 25.8675C83.9235 25.4012 83.6904 24.9091 83.1464 24.9091H81.9291C80.8153 24.9091 80.2195 24.8314 80.2195 23.5104V18.9775H82.991C83.535 18.9775 83.7681 18.4854 83.7681 18.0192C83.7681 17.5529 83.535 17.0608 82.991 17.0608H80.2195V14.5224C80.2195 13.8749 79.7533 13.4863 79.0021 13.4863C78.4064 13.5122 77.707 13.7712 77.707 14.5483Z" fill="white"></path>
    <path d="M31.1641 14.5483V23.8989C31.1641 25.8157 32.3037 26.8258 34.4795 26.8258H36.6035C37.1474 26.8258 37.3805 26.3337 37.3805 25.8675C37.3805 25.4012 37.1474 24.9091 36.6035 24.9091H35.3602C34.2464 24.9091 33.6507 24.8314 33.6507 23.5104V18.9775H36.4222C36.9661 18.9775 37.1992 18.4854 37.1992 18.0192C37.1992 17.5529 36.9661 17.0608 36.4222 17.0608H33.6507V14.5224C33.6507 13.8749 33.2103 13.4863 32.4333 13.4863C31.8375 13.5122 31.1641 13.7712 31.1641 14.5483Z" fill="white"></path>
    <path d="M70.3542 16.8789C67.4791 16.8789 66.2617 18.0186 66.2617 20.6865V25.7633C66.2617 26.4108 66.728 26.7735 67.505 26.7735C68.2821 26.7735 68.7483 26.4108 68.7483 25.7633V20.8678C68.7483 19.4432 69.0073 19.0029 70.5614 19.0029H71.2867C72.8408 19.0029 73.0998 19.4432 73.0998 20.8678V25.7633C73.0998 26.4108 73.5661 26.7735 74.3431 26.7735C75.1202 26.7735 75.5864 26.4108 75.5864 25.7633V20.6865C75.5864 18.0186 74.369 16.8789 71.4939 16.8789H70.3542Z" fill="white"></path>
    <path d="M61.5703 17.9668V25.7115C61.5703 26.5144 62.2179 26.7993 62.8395 26.7993C63.4612 26.7993 64.0828 26.5144 64.0828 25.7115V17.9668C64.0828 17.1638 63.4352 16.8789 62.8136 16.8789C62.2179 16.8789 61.5703 17.1638 61.5703 17.9668Z" fill="white"></path>
    <path d="M61.4141 14.159C61.4141 14.9619 62.0616 15.5836 62.8387 15.5836C63.6157 15.5836 64.2633 14.936 64.2633 14.159C64.2633 13.3819 63.6416 12.7344 62.8387 12.7344C62.0357 12.7344 61.4141 13.3819 61.4141 14.159Z" fill="white"></path>
    <path d="M40.2523 17.1653C39.2939 17.3725 38.75 17.9941 38.75 19.0561V29.7795C38.75 30.5307 39.3975 30.8156 39.9933 30.8156C40.589 30.8156 41.2366 30.5307 41.2366 29.7795V26.6713C41.8323 26.8008 42.3504 26.8526 43.0497 26.8526C44.5779 26.8526 45.3809 26.5936 46.2357 26.0755C47.5049 25.2985 48.2819 23.8739 48.2819 21.9571C48.2819 18.6158 46.5724 16.9062 43.1792 16.9062C42.2468 16.9062 41.1071 16.984 40.2523 17.1653ZM41.2366 24.7286V19.082C41.7546 18.9784 42.3763 18.9266 42.9979 18.9266C44.9665 18.9266 45.7694 19.6519 45.7694 21.7499C45.7694 24.0811 45.096 24.9099 42.9461 24.9099C42.3763 24.9099 41.6769 24.8581 41.2366 24.7286Z" fill="white"></path>
    <path d="M14.8664 14.2367V18.7696H9.50468V14.2367C9.50468 13.5892 9.06434 13.2266 8.28728 13.2266C7.69154 13.2266 6.99219 13.4856 6.99219 14.2367V25.7372C6.99219 26.3848 7.45843 26.7733 8.20958 26.7733C8.80533 26.7733 9.50468 26.5143 9.50468 25.7372V21.0489H14.8664V25.7372C14.8664 26.3848 15.3326 26.7733 16.0838 26.7733C16.6795 26.7733 17.3789 26.5143 17.3789 25.7372V14.2367C17.3789 13.5892 16.9126 13.2266 16.1615 13.2266C15.5657 13.2266 14.8664 13.4856 14.8664 14.2367Z" fill="white"></path>
  </symbol>
  <symbol fill="none" xmlns="http://www.w3.org/2000/svg" viewBox="0 0 106 40" id="icon-brands-indesit">
    <path fill-rule="evenodd" clip-rule="evenodd" d="M21.083 8.23884C19.7098 7.82343 18.7164 9.34113 19.5292 10.2261C23.1425 12.1412 25.5814 15.8985 25.5814 20.1801C25.5814 26.4315 20.4142 31.5259 14.0555 31.5259H13.9472C7.64213 31.4717 2.52969 26.3954 2.52969 20.1801C2.52969 15.9713 4.89627 12.2676 8.40069 10.3164C9.1412 9.28695 8.29233 8.05879 7.11835 8.18465C2.87285 10.5693 0 15.0496 0 20.1795C0 27.7494 6.25085 33.9461 13.9466 33.9997H14.055C21.7874 33.9997 28.1099 27.7855 28.1099 20.1795C28.1105 15.0857 25.2743 10.6235 21.083 8.23884ZM34.1085 27.0631H36.8363V14.4169H34.1085V27.0631Z" fill="#3D90D4"></path>
    <path fill-rule="evenodd" clip-rule="evenodd" d="M13.9468 9.77625C13.9649 9.77625 13.9649 9.79431 13.9829 9.79431C15.0305 9.79431 15.8799 8.92681 15.8799 7.89732C15.88 7.64818 15.831 7.40147 15.7357 7.17129C15.6404 6.9411 15.5006 6.73195 15.3245 6.55579C15.1483 6.37962 14.9391 6.23989 14.709 6.14459C14.4788 6.04928 14.2321 6.00026 13.9829 6.00034H13.9468C13.4503 6.0108 12.9776 6.21515 12.6298 6.56967C12.2821 6.92418 12.0869 7.40071 12.0859 7.89732C12.0859 8.92681 12.9168 9.75762 13.9468 9.77625ZM45.7423 14.4185H39.5637V27.0642H42.2915V16.8935H45.4353C47.0433 16.8935 48.145 17.6887 48.1089 19.549V27.0642H50.8367V18.773C50.8367 16.0085 48.5243 14.4185 45.7423 14.4185ZM13.9468 12.7388C13.7497 12.7383 13.5545 12.7768 13.3723 12.8519C13.1901 12.9271 13.0246 13.0376 12.8852 13.1769C12.7459 13.3163 12.6354 13.4818 12.5603 13.664C12.4851 13.8462 12.4466 14.0414 12.4472 14.2385V27.2278C12.4472 28.04 13.116 28.7094 13.9468 28.7094C14.7596 28.7094 15.4464 28.04 15.4464 27.2278V14.2379C15.4444 13.8409 15.2857 13.4607 15.0049 13.18C14.7241 12.8993 14.3438 12.7408 13.9468 12.7388ZM72.2629 14.094C68.9746 14.2385 66.8615 16.4244 66.5364 20.5971C66.3191 23.7776 68.0354 27.1008 72.2629 27.3898C72.3532 27.4084 72.4435 27.4084 72.5518 27.4084C74.4669 27.4259 75.7673 27.264 77.0321 26.7932L77.0683 24.4086C75.4061 25.078 73.6716 25.2936 72.2629 25.0238C70.5826 24.7162 69.39 23.6867 69.4442 21.9162H77.4837C78.5312 17.2191 76.0563 14.1115 72.2629 14.094ZM75.2802 19.676H69.2636V19.6399C69.2636 17.779 70.6182 16.28 72.2629 16.28C73.9239 16.28 75.2802 17.779 75.2802 19.6399V19.676ZM91.7559 27.0647H94.4832V14.4185H91.7559V27.0647ZM85.1433 19.7483C80.5727 18.9716 81.7292 15.1048 88.6838 16.9121V14.6719C86.7513 14.0579 83.6436 13.8953 81.9815 14.6719C78.5498 16.3522 78.8021 21.6091 84.4925 22.1865C88.1962 22.6386 87.6002 26.9022 79.7966 24.3911V26.866C82.2529 27.5529 85.3239 27.8419 87.4557 26.866C88.8644 25.9985 89.4068 24.8246 89.4243 23.6681C89.4797 21.6452 88.1426 20.1998 85.1433 19.7483ZM102.45 14.4185H96.5788V16.9121H99.7232V27.0647H102.45V16.9121H105.594V14.4185H102.45ZM59.1471 14.5088C58.7678 14.4546 58.3524 14.4371 57.9189 14.4371H53.6373V27.0833H57.9731C58.3885 27.0833 58.7853 27.0647 59.1471 27.0105C63.646 26.5234 64.6569 23.2171 64.6388 20.9584C64.6213 17.472 62.8146 14.9429 59.1471 14.5088ZM59.1471 24.5723C58.7492 24.6626 58.2982 24.7168 57.7733 24.7168H56.3279V16.7857H57.7378C58.2615 16.7857 58.7311 16.8398 59.1465 16.9482C61.0074 17.4184 61.9291 18.8994 61.9466 20.8861C61.9646 22.1865 61.4234 24.0474 59.1471 24.5723Z" fill="#3D90D4"></path>
  </symbol>
  <symbol fill="none" xmlns="http://www.w3.org/2000/svg" viewBox="0 0 73 40" id="icon-brands-lg">
    <g clip-path="url(#clip0_1_759)">
      <path d="M64.3763 22.3718H68.2539V25.9859C67.5386 26.2494 66.1457 26.5506 64.7904 26.5506C60.4986 26.5506 59.068 24.3671 59.068 19.9247C59.068 15.7082 60.4233 13.1859 64.7527 13.1859C67.1622 13.1859 68.5175 13.9388 69.6469 15.3694L72.621 12.6212C70.8139 10.0235 67.6516 9.23294 64.6775 9.23294C57.9763 9.23294 54.4751 12.8847 54.4751 19.8494C54.4751 26.7765 57.6375 30.5412 64.6398 30.5412C67.8398 30.5412 71.0022 29.7129 72.6963 28.5082V18.5318H64.4139V22.3718H64.3763Z" fill="#6F6F6E"/>
      <path d="M43.934 9.57176H39.1528V30.2776H53.8352V26.2494H43.934V9.57176Z" fill="#6F6F6E"/>
      <path d="M16 36C24.8366 36 32 28.8366 32 20C32 11.1634 24.8366 4 16 4C7.16344 4 0 11.1634 0 20C0 28.8366 7.16344 36 16 36Z" fill="url(#paint0_radial_1_759)"/>
      <path d="M5.15775 9.15765C-0.188128 14.5412 -0.715186 22.6729 3.9907 27.3788C8.69658 32.0847 16.8283 31.52 22.1742 26.1741C27.5201 20.8282 28.0472 12.6588 23.3789 7.95294C21.233 5.80706 18.3719 4.75294 15.3601 4.75294C11.8213 4.75294 8.09422 6.25883 5.15775 9.15765Z" fill="url(#paint1_linear_1_759)"/>
      <path d="M15.247 27.1906V12.8094H16.8658L17.0917 13.1859C17.0917 13.1859 17.1293 13.2235 17.1293 13.2988V25.6094H20.1034L20.2917 25.9859C20.2917 26.0235 20.3293 26.0612 20.3293 26.1365V27.3788C20.3293 27.4165 20.2917 27.4541 20.254 27.4541H15.6987C15.5858 27.4541 15.5105 27.4165 15.4729 27.3788L15.247 27.1906ZM29.6281 19.2847H19.727V20.8659L19.9905 21.2047C19.9905 21.2047 20.0281 21.2423 20.0658 21.2423H28.3481C27.934 27.4918 22.6258 32.4235 16.3387 32.4235C9.71285 32.4235 4.29167 27.1153 4.29167 20.4518C4.29167 14.0141 9.1105 8.55529 16.3387 8.4047C16.3387 8.4047 17.0164 8.4047 17.054 8.4047C17.0917 8.4047 17.1293 8.4047 17.1293 8.29176V6.93646C17.1293 6.82352 17.0917 6.82352 17.0917 6.78588L16.8281 6.44705C16.8281 6.44705 2.67285 6.52234 2.67285 20.4141C2.67285 27.4541 8.20697 33.8541 16.3011 33.8541C24.1693 33.8541 29.967 27.5671 29.967 20.3012V19.5106L29.6281 19.2847ZM11.1058 12.9976C9.90109 12.9976 8.95991 13.9388 8.95991 15.1435C8.95991 16.3106 9.93873 17.2894 11.1058 17.2894C12.3105 17.2894 13.2517 16.3482 13.2517 15.1435C13.2517 13.9765 12.2729 12.9976 11.1058 12.9976Z" fill="url(#paint2_linear_1_759)"/>
      <path d="M28.1224 20.64V20.8282C27.7083 27.1906 22.3624 32.16 16 32.16C9.29886 32.16 3.87769 26.7012 3.87769 20.0376C3.87769 13.3741 9.33651 7.9153 16 7.9153C16.2259 7.9153 16.4142 7.9153 16.64 7.9153L16.8283 8.10353C16.5647 8.10353 16.3012 8.06589 16 8.06589C9.4118 8.02824 4.02827 13.4118 4.02827 20C4.02827 26.5882 9.4118 31.9718 16 31.9718C22.3247 31.9718 27.52 27.04 27.9341 20.8282L28.1224 20.64Z" fill="url(#paint3_linear_1_759)"/>
      <path d="M29.5529 20C29.5529 27.4918 23.4917 33.5529 16 33.5529C8.5082 33.5529 2.44702 27.4918 2.44702 20C2.44702 12.5082 8.5082 6.44705 16 6.44705C16.2635 6.44705 16.527 6.44705 16.8282 6.4847L16.64 6.63529C16.4141 6.63529 16.1882 6.63529 16 6.63529C8.62114 6.59764 2.63526 12.6212 2.63526 20C2.63526 27.3788 8.65878 33.4023 16.0376 33.4023C23.4164 33.4023 29.44 27.3788 29.44 20C29.44 19.8118 29.44 19.5859 29.44 19.3976L29.5905 19.2094C29.5529 19.4729 29.5529 19.7365 29.5529 20Z" fill="url(#paint4_linear_1_759)"/>
      <path d="M16.8281 6.48471V8.06589L16.6399 7.87765V6.6353L16.8281 6.48471Z" fill="url(#paint5_linear_1_759)"/>
      <path d="M15.2471 12.8094H16.8282L16.64 12.9977H15.3977L15.2471 12.8094Z" fill="#969B9F"/>
      <path d="M19.6895 19.2094L19.84 19.3976V20.64L19.6895 20.8282V19.2094Z" fill="#C2C6C8"/>
      <path d="M29.553 19.2094L29.3647 19.3976H19.84L19.6895 19.2094H29.553Z" fill="#9FA5A9"/>
      <path d="M15.2471 12.8094L15.3977 12.9977V27.0024L15.2471 27.1906V12.8094Z" fill="#C2C6C8"/>
      <path d="M15.2471 27.1906L15.3977 27.0023H19.84L20.0282 27.1906H15.2471Z" fill="#6C7176"/>
      <path d="M20.0283 25.5718L19.8401 25.76V27.0024L20.0283 27.1906V25.5718Z" fill="url(#paint6_linear_1_759)"/>
      <path d="M16.8281 25.5718L16.6399 25.76H19.8399L20.0281 25.5718H16.8281Z" fill="#99A2A9"/>
      <path d="M16.8281 12.8094L16.6399 12.9977V25.76L16.8281 25.5718V12.8094Z" fill="url(#paint7_linear_1_759)"/>
      <path d="M28.1224 20.64L27.9342 20.8282H19.6895L19.84 20.64H28.1224Z" fill="#575C5E"/>
      <path d="M16 33.4023C8.62113 33.4023 2.63525 27.3788 2.63525 20C2.63525 12.6212 8.65878 6.59764 16.0376 6.59764C16.2258 6.59764 16.4517 6.59764 16.6776 6.59764V7.83999C16.4517 7.83999 16.2258 7.83999 16.0376 7.83999C9.33643 7.83999 3.91525 13.2988 3.91525 19.9623C3.91525 26.6635 9.37407 32.0847 16.0376 32.0847C22.4 32.0847 27.7082 27.1153 28.16 20.7529V20.5647H19.8776V19.3223H29.4023C29.4023 19.5482 29.4023 19.7365 29.4023 19.9247C29.4023 27.3788 23.3788 33.4023 16 33.4023ZM19.84 27.0023V25.76H16.64V12.9976H15.3976V27.0023H19.84Z" fill="url(#paint8_radial_1_759)"/>
      <path d="M16.6399 25.76C16.6399 25.76 17.5811 26.0235 19.8399 26.0235V25.76H16.6399Z" fill="white"/>
      <path d="M4.32935 23.2753C5.68464 28.4706 10.5411 32.2729 16.1505 32.2729C22.5129 32.2729 27.8211 27.3035 28.2352 20.9412L28.2729 20.6024H28.1223V20.7906C27.7082 27.1529 22.3623 32.1224 15.9999 32.1224C10.4658 32.16 5.75993 28.3953 4.32935 23.2753Z" fill="white"/>
      <path d="M16.6401 13.3741V12.96H15.3977V26.9647C15.3977 26.9647 15.7742 24.8188 15.7742 13.3365H16.6401V13.3741Z" fill="white"/>
      <path d="M16.64 6.63529C16.4141 6.63529 16.1882 6.63529 16 6.63529C8.62114 6.59765 2.63525 12.6212 2.63525 20C2.63525 23.8024 4.21643 27.2659 6.77643 29.7129C4.40467 27.1906 3.04937 23.9529 3.04937 20.4894C3.04937 13.1106 8.31996 7.01176 16.64 6.63529Z" fill="white"/>
      <path d="M29.3648 19.3976H19.8401V20.64H20.1789V19.7365C28.4989 19.7365 29.3648 19.3976 29.3648 19.3976Z" fill="white"/>
      <path d="M10.9178 12.8094C9.7507 12.8094 8.84717 13.7506 8.84717 14.88C8.84717 16.0471 9.78834 16.9506 10.9178 16.9506C12.0848 16.9506 12.9883 16.0094 12.9883 14.88C12.9883 13.7506 12.0472 12.8094 10.9178 12.8094Z" fill="url(#paint9_linear_1_759)"/>
      <path d="M10.9178 16.8C10.466 16.8 10.0896 16.6494 9.75074 16.3859C9.29898 16.0471 8.9978 15.4824 8.9978 14.88C8.9978 13.8259 9.86368 12.96 10.9178 12.96C11.5202 12.96 12.0849 13.2612 12.4237 13.7129C12.6872 14.0518 12.8378 14.4282 12.8378 14.88C12.8378 15.9341 11.9719 16.8 10.9178 16.8Z" fill="url(#paint10_radial_1_759)"/>
      <path d="M12.4237 13.7129C12.0849 13.4494 11.7084 13.2988 11.2566 13.2988C10.2025 13.2988 9.33663 14.1647 9.33663 15.2188C9.33663 15.6706 9.48721 16.0471 9.75074 16.3859C9.29898 16.0471 8.9978 15.4824 8.9978 14.88C8.9978 13.8259 9.86369 12.96 10.9178 12.96C11.5202 12.9977 12.0849 13.2612 12.4237 13.7129Z" fill="white"/>
    </g>
    <defs>
      <radialGradient id="paint0_radial_1_759" cx="0" cy="0" r="1" gradientUnits="userSpaceOnUse" gradientTransform="translate(15.402 19.5145) scale(16.6876)">
        <stop stop-color="#A20E39"/>
        <stop offset="0.5" stop-color="#A20E39"/>
        <stop offset="0.7363" stop-color="#A10E39"/>
        <stop offset="0.8358" stop-color="#9C0F37"/>
        <stop offset="0.9094" stop-color="#951033"/>
        <stop offset="0.9701" stop-color="#8B112F"/>
        <stop offset="1" stop-color="#83122B"/>
      </radialGradient>
      <linearGradient id="paint1_linear_1_759" x1="9.45046" y1="6.0698" x2="17.8952" y2="29.2715" gradientUnits="userSpaceOnUse">
        <stop stop-color="#D98997"/>
        <stop offset="0.0111818" stop-color="#D78694"/>
        <stop offset="0.263" stop-color="#BF5666"/>
        <stop offset="0.4875" stop-color="#AE344B"/>
        <stop offset="0.6746" stop-color="#A51D3E"/>
        <stop offset="0.8011" stop-color="#A20E39"/>
        <stop offset="1" stop-color="#A20E39"/>
      </linearGradient>
      <linearGradient id="paint2_linear_1_759" x1="5.23116" y1="11.7136" x2="24.6946" y2="31.1771" gradientUnits="userSpaceOnUse">
        <stop stop-color="#B13E58"/>
        <stop offset="0.0901959" stop-color="#A4344D"/>
        <stop offset="0.2501" stop-color="#93263F"/>
        <stop offset="0.431" stop-color="#871D37"/>
        <stop offset="0.6483" stop-color="#811732"/>
        <stop offset="1" stop-color="#7F1530"/>
      </linearGradient>
      <linearGradient id="paint3_linear_1_759" x1="28.1314" y1="20.0028" x2="3.86681" y2="20.0028" gradientUnits="userSpaceOnUse">
        <stop stop-color="#C2C6C8"/>
        <stop offset="1" stop-color="#4F5255"/>
      </linearGradient>
      <linearGradient id="paint4_linear_1_759" x1="5.1814" y1="11.5905" x2="24.5212" y2="30.9302" gradientUnits="userSpaceOnUse">
        <stop stop-color="#C2C6C8"/>
        <stop offset="1" stop-color="#44474A"/>
      </linearGradient>
      <linearGradient id="paint5_linear_1_759" x1="16.6502" y1="7.26472" x2="16.823" y2="7.26472" gradientUnits="userSpaceOnUse">
        <stop stop-color="#666869"/>
        <stop offset="0.5871" stop-color="#4B4D4D"/>
        <stop offset="1" stop-color="#3C3D3D"/>
      </linearGradient>
      <linearGradient id="paint6_linear_1_759" x1="19.8576" y1="26.3835" x2="20.0301" y2="26.3835" gradientUnits="userSpaceOnUse">
        <stop stop-color="#666869"/>
        <stop offset="0.5871" stop-color="#4B4D4D"/>
        <stop offset="1" stop-color="#3C3D3D"/>
      </linearGradient>
      <linearGradient id="paint7_linear_1_759" x1="16.6506" y1="19.2872" x2="16.823" y2="19.2872" gradientUnits="userSpaceOnUse">
        <stop stop-color="#828689"/>
        <stop offset="0.2503" stop-color="#6D7174"/>
        <stop offset="0.7457" stop-color="#474B4D"/>
        <stop offset="1" stop-color="#383B3D"/>
      </linearGradient>
      <radialGradient id="paint8_radial_1_759" cx="0" cy="0" r="1" gradientUnits="userSpaceOnUse" gradientTransform="translate(10.61 14.3336) scale(20.4759 20.4759)">
        <stop stop-color="white"/>
        <stop offset="0.35" stop-color="white"/>
        <stop offset="0.5295" stop-color="#FBFCFC"/>
        <stop offset="0.7147" stop-color="#EFF1F3"/>
        <stop offset="0.902" stop-color="#DCE0E3"/>
        <stop offset="1" stop-color="#CFD4D8"/>
      </radialGradient>
      <linearGradient id="paint9_linear_1_759" x1="9.42833" y1="13.415" x2="12.3803" y2="16.367" gradientUnits="userSpaceOnUse">
        <stop stop-color="#BBC2C8"/>
        <stop offset="1" stop-color="#26282A"/>
      </linearGradient>
      <radialGradient id="paint10_radial_1_759" cx="0" cy="0" r="1" gradientUnits="userSpaceOnUse" gradientTransform="translate(10.1185 14.1923) scale(2.98406 2.98406)">
        <stop stop-color="white"/>
        <stop offset="0.35" stop-color="white"/>
        <stop offset="0.5653" stop-color="#FBFCFC"/>
        <stop offset="0.7879" stop-color="#EFF1F2"/>
        <stop offset="1" stop-color="#DDE1E4"/>
      </radialGradient>
      <clipPath id="clip0_1_759">
        <rect width="72.6588" height="32" fill="white" transform="translate(0 4)"/>
      </clipPath>
    </defs>
  </symbol>
  <symbol fill="none" xmlns="http://www.w3.org/2000/svg" viewBox="0 0 120 40" id="icon-brands-samsung">
    <rect width="120" height="40" fill="#EEEEEE"></rect>
    <path fill-rule="evenodd" clip-rule="evenodd" d="M18.242 16.8048C18.1789 16.5432 18.1939 16.2665 18.2286 16.1231C18.3175 15.7089 18.5989 15.2471 19.4193 15.2471C20.1802 15.2471 20.6281 15.7196 20.6281 16.427C20.6281 16.6668 20.6281 17.2308 20.6281 17.2308H23.872V16.3184C23.872 13.493 21.3211 13.043 19.4824 13.043C17.1718 13.043 15.2844 13.8087 14.9393 15.9294C14.8446 16.5116 14.828 17.0237 14.965 17.6803C15.5284 20.3355 20.1508 21.1034 20.8229 22.7837C20.9486 23.0957 20.9106 23.497 20.848 23.7421C20.7415 24.1788 20.4483 24.6197 19.5782 24.6197C18.7659 24.6197 18.2795 24.1467 18.2795 23.4371L18.2752 22.1876H14.7852V23.1808C14.7852 26.0843 17.069 26.9576 19.5135 26.9576C21.8632 26.9576 23.7928 26.1576 24.108 23.984C24.2642 22.864 24.147 22.1346 24.0941 21.8585C23.545 19.1326 18.6123 18.3251 18.242 16.8048ZM60.5409 16.8369C60.4831 16.5801 60.4997 16.3083 60.5297 16.1648C60.6222 15.7496 60.9021 15.2963 61.7085 15.2963C62.4593 15.2963 62.8997 15.764 62.8997 16.4661C62.8997 16.7026 62.8997 17.2597 62.8997 17.2597H66.1061V16.3548C66.1061 13.5561 63.5937 13.1163 61.7749 13.1163C59.484 13.1163 57.6127 13.8708 57.2713 15.9765C57.1809 16.5496 57.1584 17.0574 57.3024 17.7071C57.8594 20.3329 62.4368 21.0943 63.1009 22.7543C63.2181 23.0689 63.1849 23.4703 63.1244 23.7062C63.0254 24.1386 62.7343 24.5731 61.8712 24.5731C61.0621 24.5731 60.5751 24.1081 60.5751 23.4082L60.5741 22.1614H57.1226V23.1524C57.1226 26.0233 59.3743 26.8897 61.7995 26.8897C64.123 26.8897 66.0414 26.0966 66.3491 23.9481C66.4957 22.8378 66.3849 22.1148 66.326 21.8424C65.7882 19.1497 60.9101 18.3401 60.5409 16.8369ZM90.074 23.9133L87.011 13.4566H82.1848V26.3085H85.3773L85.1921 15.5179L88.4815 26.3085H93.1103V13.4566H89.8969L90.074 23.9133ZM28.7094 13.4566L26.3003 26.4444H29.8134L31.629 14.4214L33.4008 26.4444H36.8903L34.4908 13.4566H28.7094ZM48.3547 13.4566L46.714 23.6094L45.0739 13.4566H39.7676L39.4867 26.4444H42.7375L42.8253 14.4214L45.0621 26.4444H48.36L50.5984 14.4214L50.6867 26.4444H53.9456L53.655 13.4566H48.3547ZM78.5781 13.4566H75.2887V23.0646C75.2941 23.2321 75.2887 23.42 75.2598 23.5586C75.1913 23.8807 74.9179 24.502 74.0098 24.502C73.114 24.502 72.8336 23.8807 72.7699 23.5586C72.7367 23.42 72.733 23.2321 72.7367 23.0646V13.4566H69.4484V22.7666C69.4447 23.0063 69.4634 23.497 69.4773 23.6249C69.7048 26.0511 71.6194 26.8388 74.0098 26.8388C76.4055 26.8388 78.3191 26.0511 78.5503 23.6249C78.5685 23.497 78.5925 23.0063 78.5781 22.7666V13.4566ZM101.164 19.1545V21.0483H102.497V22.9282C102.501 23.0957 102.491 23.2766 102.463 23.4221C102.41 23.7721 102.076 24.3693 101.13 24.3693C100.189 24.3693 99.8618 23.7721 99.8051 23.4221C99.781 23.2766 99.7709 23.0957 99.7709 22.9282V16.9921C99.7709 16.7824 99.7853 16.5523 99.8297 16.3784C99.8945 16.0621 100.175 15.4382 101.123 15.4382C102.118 15.4382 102.366 16.0958 102.423 16.3784C102.46 16.5656 102.463 16.8792 102.463 16.8792V17.6H105.738V17.1735C105.738 17.1735 105.753 16.7294 105.713 16.3141C105.467 13.8783 103.457 13.1077 101.152 13.1077C98.8424 13.1077 96.8732 13.8852 96.5864 16.3141C96.5602 16.5362 96.5206 16.9365 96.5206 17.1735V22.6344C96.5206 22.872 96.5281 23.0566 96.5725 23.4906C96.7865 25.8601 98.8424 26.6997 101.143 26.6997C103.457 26.6997 105.499 25.8601 105.717 23.4906C105.755 23.0566 105.759 22.872 105.764 22.6344V19.1545H101.164Z" fill="black"></path>
  </symbol>

</svg>