<svg fill="none" xmlns="http://www.w3.org/2000/svg">
  <symbol viewBox="0 0 238 45" fill="none" xmlns="http://www.w3.org/2000/svg" id="icon-logo">
    <path fill="#2A62A0" fill-rule="evenodd" clip-rule="evenodd" d="M166.315 26.7941L159.119 17.7009V26.7941H154.391V6.20588H159.119V14.3545L165.698 6.20588H171.66L163.848 15.8824L172.482 26.7941H166.315ZM145.551 6.20588H150.279V26.7941H145.551V6.20588ZM138.356 27C137.347 27 136.451 26.5149 135.889 25.7649L135.888 25.7629L128.282 12.7941L128.292 12.7678C128.289 12.769 128.286 12.7702 128.282 12.7715V12.7941V26.7941H123.554V9.5C123.554 7.56697 125.119 6 127.049 6C128.384 6 129.544 6.75085 130.132 7.85335L136.711 18.9706V6H141.439V23.7059L141.43 23.7158C141.434 23.7808 141.439 23.8457 141.439 23.9118C141.439 25.6173 140.059 27 138.356 27ZM110.397 26.7941C108.921 26.7941 107.724 25.5959 107.724 24.1176V22.0588V6.20588H112.453V22.0588H120.676V26.7941H112.453H110.397ZM98.8843 6.20588H103.613V26.7941H98.8843V6.20588ZM83.4657 26.7941H78.7374V6.20588H83.4657C83.4657 6.20588 89.4483 6.02944 92.1001 8.26471C94.7698 10.515 95.595 13.0056 95.595 16.5C95.595 19.9946 94.7698 22.485 92.1001 24.7353C89.4483 26.9708 83.4657 26.7941 83.4657 26.7941ZM87.5773 10.7353C86.0898 10.1298 83.4657 10.3235 83.4657 10.3235V22.6765C83.4657 22.6765 86.0898 22.8704 87.5773 22.2647C90.106 21.2353 90.8666 19.2337 90.8666 16.5C90.8666 13.7663 90.106 11.7647 87.5773 10.7353ZM66.197 27C60.7365 27 56.9458 22.8824 56.9458 16.5C56.9458 10.1176 60.7365 6 66.197 6C71.6574 6 75.4481 10.1176 75.4481 16.5C75.4481 22.8824 71.6574 27 66.197 27ZM66.197 10.1176C63.1451 10.1176 61.6742 13.4437 61.6742 16.5C61.6742 19.5563 63.1451 22.8824 66.197 22.8824C69.2488 22.8824 70.7197 19.5563 70.7197 16.5C70.7197 13.4437 69.2488 10.1176 66.197 10.1176ZM44.611 26.7941C43.1349 26.7941 41.9384 25.5959 41.9384 24.1176V22.0588V6.20588H46.6668V22.0588H54.89V26.7941H46.6668H44.611ZM29.398 27C23.9376 27 20.1469 22.8824 20.1469 16.5C20.1469 10.1176 23.9376 6 29.398 6C34.8585 6 38.6492 10.1176 38.6492 16.5C38.6492 22.8824 34.8585 27 29.398 27ZM29.398 10.1176C26.3462 10.1176 24.8753 13.4437 24.8753 16.5C24.8753 19.5563 26.3462 22.8824 29.398 22.8824C32.4499 22.8824 33.9208 19.5563 33.9208 16.5C33.9208 13.4437 32.4499 10.1176 29.398 10.1176ZM12.3348 18.3529H4.72835V26.7941H0V18.3529V13.6176V6.20588H4.72835V13.6176H12.3348V6.20588H17.0632V13.6176V18.3529V26.7941H12.3348V18.3529Z" />
    <g fill="#F59E31" fill-rule="evenodd" clip-rule="evenodd"> 
      <path d="M190.899 29.2622L180.791 31.842C177.599 32.6567 174.5 30.2187 174.5 26.8916V5.10865C174.5 1.746 177.661 -0.698556 180.874 0.180313L190.981 2.9441C193.184 3.54662 194.714 5.56641 194.714 7.87243V24.3118C194.714 26.6501 193.142 28.6893 190.899 29.2622ZM183.975 12.8C182.231 12.8 180.817 14.2327 180.817 16C180.817 17.7673 182.231 19.2 183.975 19.2C185.72 19.2 187.134 17.7673 187.134 16C187.134 14.2327 185.72 12.8 183.975 12.8Z" />
      <path d="M211.279 27.7723L204.23 18.6634V27.7725H199V5.00023H204.23C204.23 5.00023 206.163 5.00023 208.55 5.00023C212.318 5.00023 215.372 8.05877 215.372 11.8317C215.372 14.9927 213.228 17.6511 210.317 18.4309L217.646 27.7723H211.279ZM207.641 9.32673C205.481 9.32673 204.23 9.32673 204.23 9.32673V14.3366C204.23 14.3366 205.481 14.3366 207.641 14.3366C209.022 14.3366 210.142 13.2151 210.142 11.8317C210.142 10.4483 209.022 9.32673 207.641 9.32673Z" />
      <path d="M228.453 28C223.666 28 219.13 25.2828 219.13 20.0297V5H224.36C224.36 5 224.36 13.9217 224.36 19.3465C224.36 21.5099 226.063 23.4455 228.453 23.4455C230.843 23.4455 232.546 21.5099 232.546 19.3465C232.546 13.9217 232.546 5 232.546 5H237.776V20.0297C237.776 25.358 233.24 28 228.453 28Z" />
    </g>
    <path fill="#2A62A0" d="M0.197902 36.3H1.0009V42.68L5.9289 36.3H6.6659V44H5.8629V37.631L0.934902 44H0.197902V36.3ZM16.0293 36.3V44H15.2263V40.447H10.4083V44H9.59431V36.3H10.4083V39.732H15.2263V36.3H16.0293ZM23.9965 37.004H21.2905V44H20.4875V37.004H17.7815V36.3H23.9965V37.004ZM31.2003 43.296V44H25.7553V36.3H31.0353V37.004H26.5693V39.743H30.5513V40.436H26.5693V43.296H31.2003ZM36.2183 36.3C37.2009 36.3 37.9709 36.5347 38.5283 37.004C39.0856 37.4733 39.3643 38.1187 39.3643 38.94C39.3643 39.7613 39.0856 40.4067 38.5283 40.876C37.9709 41.338 37.2009 41.569 36.2183 41.569H34.1503V44H33.3363V36.3H36.2183ZM36.1963 40.854C36.9589 40.854 37.5419 40.689 37.9453 40.359C38.3486 40.0217 38.5503 39.5487 38.5503 38.94C38.5503 38.3167 38.3486 37.84 37.9453 37.51C37.5419 37.1727 36.9589 37.004 36.1963 37.004H34.1503V40.854H36.1963ZM47.8034 36.3V44H47.0004V40.447H42.1824V44H41.3684V36.3H42.1824V39.732H47.0004V36.3H47.8034ZM56.1776 43.296V44H50.7326V36.3H56.0126V37.004H51.5466V39.743H55.5286V40.436H51.5466V43.296H56.1776ZM63.3516 37.004H60.6456V44H59.8426V37.004H57.1366V36.3H63.3516V37.004ZM64.1179 40.678H66.9999V41.36H64.1179V40.678ZM77.2831 36.3V44H76.5021V37.84L73.4771 43.021H73.0921L70.0671 37.873V44H69.2861V36.3H69.9571L73.3011 42.009L76.6121 36.3H77.2831ZM85.1359 41.943H80.8459L79.9219 44H79.0749L82.5949 36.3H83.3979L86.9179 44H86.0599L85.1359 41.943ZM84.8389 41.283L82.9909 37.147L81.1429 41.283H84.8389ZM93.6184 37.004H89.5154L89.5264 44H88.7234V36.3H93.6184V37.004ZM98.8261 41.943H94.5361L93.6121 44H92.7651L96.2851 36.3H97.0881L100.608 44H99.7501L98.8261 41.943ZM98.5291 41.283L96.6811 37.147L94.8331 41.283H98.5291ZM105.758 39.974C106.264 40.0987 106.66 40.326 106.946 40.656C107.239 40.986 107.386 41.382 107.386 41.844C107.386 42.2913 107.246 42.6837 106.968 43.021C106.689 43.3583 106.319 43.6187 105.857 43.802C105.395 43.978 104.892 44.066 104.35 44.066C103.836 44.066 103.33 43.9853 102.832 43.824C102.34 43.6553 101.897 43.406 101.501 43.076L101.798 42.493C102.135 42.779 102.52 42.999 102.953 43.153C103.385 43.2997 103.822 43.373 104.262 43.373C104.68 43.373 105.065 43.307 105.417 43.175C105.769 43.043 106.047 42.856 106.253 42.614C106.465 42.3647 106.572 42.0713 106.572 41.734C106.572 41.2867 106.396 40.942 106.044 40.7C105.692 40.458 105.197 40.337 104.559 40.337H102.909V39.677H104.515C105.057 39.677 105.479 39.5633 105.78 39.336C106.088 39.1013 106.242 38.7787 106.242 38.368C106.242 37.9133 106.047 37.5577 105.659 37.301C105.27 37.037 104.782 36.905 104.196 36.905C103.829 36.905 103.459 36.96 103.085 37.07C102.711 37.1727 102.355 37.3303 102.018 37.543L101.743 36.872C102.505 36.4173 103.33 36.19 104.218 36.19C104.738 36.19 105.215 36.2743 105.648 36.443C106.08 36.6117 106.421 36.8537 106.671 37.169C106.927 37.4843 107.056 37.8547 107.056 38.28C107.056 38.6907 106.942 39.0463 106.715 39.347C106.487 39.6403 106.168 39.8493 105.758 39.974ZM109.737 36.3H110.54V42.68L115.468 36.3H116.205V44H115.402V37.631L110.474 44H109.737V36.3ZM125.568 36.3V44H124.765V40.447H119.947V44H119.133V36.3H119.947V39.732H124.765V36.3H125.568ZM137.745 36.3V44H136.942V37.004H133.224L133.136 39.578C133.1 40.6413 133.012 41.4993 132.872 42.152C132.74 42.7973 132.535 43.2813 132.256 43.604C131.978 43.9193 131.607 44.077 131.145 44.077C130.947 44.077 130.742 44.0513 130.529 44L130.595 43.274C130.72 43.3033 130.841 43.318 130.958 43.318C131.281 43.318 131.541 43.1897 131.739 42.933C131.945 42.6763 132.099 42.2803 132.201 41.745C132.304 41.2023 132.374 40.4873 132.41 39.6L132.52 36.3H137.745ZM146.888 36.234C147.614 36.234 148.27 36.4027 148.857 36.74C149.444 37.0773 149.902 37.5467 150.232 38.148C150.569 38.742 150.738 39.4093 150.738 40.15C150.738 40.8907 150.569 41.5617 150.232 42.163C149.902 42.757 149.444 43.2227 148.857 43.56C148.27 43.8973 147.614 44.066 146.888 44.066C146.199 44.066 145.572 43.912 145.007 43.604C144.442 43.296 143.988 42.867 143.643 42.317C143.298 41.767 143.104 41.1473 143.06 40.458H141.476V44H140.673V36.3H141.476V39.721H143.071C143.13 39.0537 143.331 38.456 143.676 37.928C144.028 37.3927 144.483 36.9783 145.04 36.685C145.597 36.3843 146.213 36.234 146.888 36.234ZM146.888 43.34C147.46 43.34 147.977 43.2043 148.439 42.933C148.901 42.6543 149.264 42.273 149.528 41.789C149.792 41.305 149.924 40.7587 149.924 40.15C149.924 39.5413 149.792 38.995 149.528 38.511C149.264 38.027 148.901 37.6493 148.439 37.378C147.977 37.0993 147.46 36.96 146.888 36.96C146.323 36.96 145.81 37.0993 145.348 37.378C144.886 37.6493 144.523 38.027 144.259 38.511C143.995 38.995 143.863 39.5413 143.863 40.15C143.863 40.7587 143.995 41.305 144.259 41.789C144.523 42.273 144.886 42.6543 145.348 42.933C145.81 43.2043 146.323 43.34 146.888 43.34ZM153.013 36.3H158.645V36.993H153.816V39.512H156.335C157.244 39.512 157.933 39.699 158.403 40.073C158.879 40.447 159.118 40.9897 159.118 41.701C159.118 42.4417 158.861 43.01 158.348 43.406C157.842 43.802 157.112 44 156.159 44H153.013V36.3ZM156.148 43.351C156.859 43.351 157.394 43.2153 157.754 42.944C158.12 42.6727 158.304 42.2693 158.304 41.734C158.304 41.206 158.124 40.8137 157.765 40.557C157.413 40.293 156.874 40.161 156.148 40.161H153.816V43.351H156.148ZM164.712 44.066C163.949 44.066 163.256 43.8973 162.633 43.56C162.017 43.2153 161.533 42.746 161.181 42.152C160.836 41.558 160.664 40.8907 160.664 40.15C160.664 39.4093 160.836 38.742 161.181 38.148C161.533 37.554 162.017 37.0883 162.633 36.751C163.256 36.4063 163.949 36.234 164.712 36.234C165.475 36.234 166.16 36.4027 166.769 36.74C167.385 37.0773 167.869 37.5467 168.221 38.148C168.573 38.742 168.749 39.4093 168.749 40.15C168.749 40.8907 168.573 41.5617 168.221 42.163C167.869 42.757 167.385 43.2227 166.769 43.56C166.16 43.8973 165.475 44.066 164.712 44.066ZM164.712 43.34C165.321 43.34 165.871 43.2043 166.362 42.933C166.853 42.6543 167.238 42.273 167.517 41.789C167.796 41.2977 167.935 40.7513 167.935 40.15C167.935 39.5487 167.796 39.006 167.517 38.522C167.238 38.0307 166.853 37.6493 166.362 37.378C165.871 37.0993 165.321 36.96 164.712 36.96C164.103 36.96 163.55 37.0993 163.051 37.378C162.56 37.6493 162.171 38.0307 161.885 38.522C161.606 39.006 161.467 39.5487 161.467 40.15C161.467 40.7513 161.606 41.2977 161.885 41.789C162.171 42.273 162.56 42.6543 163.051 42.933C163.55 43.2043 164.103 43.34 164.712 43.34ZM171.021 36.3H171.824V42.68L176.752 36.3H177.489V44H176.686V37.631L171.758 44H171.021V36.3ZM174.233 35.739C173.683 35.739 173.247 35.6143 172.924 35.365C172.609 35.1157 172.448 34.7673 172.44 34.32H173.045C173.053 34.6133 173.163 34.8443 173.375 35.013C173.588 35.1817 173.874 35.266 174.233 35.266C174.585 35.266 174.868 35.1817 175.08 35.013C175.3 34.8443 175.414 34.6133 175.421 34.32H176.026C176.019 34.7673 175.854 35.1157 175.531 35.365C175.209 35.6143 174.776 35.739 174.233 35.739ZM188.665 37.004H185.959V44H185.156V37.004H182.45V36.3H188.665V37.004ZM195.869 43.296V44H190.424V36.3H195.704V37.004H191.238V39.743H195.22V40.436H191.238V43.296H195.869ZM197.985 36.3L200.174 39.347L202.352 36.3H203.309L200.68 39.996L203.518 44H202.561L200.174 40.689L197.787 44H196.852L199.679 40.029L197.05 36.3H197.985ZM211.559 36.3V44H210.756V40.447H205.938V44H205.124V36.3H205.938V39.732H210.756V36.3H211.559ZM214.488 36.3H215.291V42.68L220.219 36.3H220.956V44H220.153V37.631L215.225 44H214.488V36.3ZM226.436 40.469H224.676V44H223.884V36.3H224.676V39.754H226.436L229.043 36.3H229.923L227.063 40.04L230.088 44H229.153L226.436 40.469ZM231.669 36.3H232.472V42.68L237.4 36.3H238.137V44H237.334V37.631L232.406 44H231.669V36.3Z" />
  </symbol>

  <symbol  xmlns="http://www.w3.org/2000/svg" viewBox="0 0 24 24" id="icon-cart">
    <path fill="currentColor" d="M1 2.70001C1 2.51435 1.07375 2.3363 1.20503 2.20503C1.3363 2.07375 1.51435 2 1.70001 2H3.80003C3.95617 2.00004 4.10782 2.05229 4.23085 2.14844C4.35389 2.24458 4.44125 2.3791 4.47903 2.5306L5.04604 4.80003H21.3002C21.4065 4.80006 21.5114 4.82431 21.607 4.87094C21.7026 4.91757 21.7862 4.98536 21.8517 5.06916C21.9171 5.15296 21.9626 5.25057 21.9847 5.35458C22.0068 5.45859 22.0049 5.56626 21.9792 5.66943L19.8792 14.0695C19.8414 14.221 19.754 14.3555 19.631 14.4517C19.508 14.5478 19.3563 14.6001 19.2002 14.6001H6.60005C6.44391 14.6001 6.29226 14.5478 6.16922 14.4517C6.04619 14.3555 5.95883 14.221 5.92105 14.0695L3.25402 3.40001H1.70001C1.51435 3.40001 1.3363 3.32626 1.20503 3.19499C1.07375 3.06371 1 2.88566 1 2.70001ZM5.39604 6.20004L7.14606 13.2001H18.6542L20.4042 6.20004H5.39604ZM8.00006 17.4001C7.62876 17.4001 7.27266 17.5476 7.01011 17.8102C6.74755 18.0728 6.60005 18.4288 6.60005 18.8002C6.60005 19.1715 6.74755 19.5276 7.01011 19.7901C7.27266 20.0527 7.62876 20.2002 8.00006 20.2002C8.37137 20.2002 8.72747 20.0527 8.99002 19.7901C9.25258 19.5276 9.40008 19.1715 9.40008 18.8002C9.40008 18.4288 9.25258 18.0728 8.99002 17.8102C8.72747 17.5476 8.37137 17.4001 8.00006 17.4001ZM5.20004 18.8002C5.20004 18.0575 5.49504 17.3453 6.02015 16.8202C6.54525 16.2951 7.25745 16.0001 8.00006 16.0001C8.74268 16.0001 9.45488 16.2951 9.97998 16.8202C10.5051 17.3453 10.8001 18.0575 10.8001 18.8002C10.8001 19.5428 10.5051 20.255 9.97998 20.7801C9.45488 21.3052 8.74268 21.6002 8.00006 21.6002C7.25745 21.6002 6.54525 21.3052 6.02015 20.7801C5.49504 20.255 5.20004 19.5428 5.20004 18.8002ZM17.8002 17.4001C17.4288 17.4001 17.0728 17.5476 16.8102 17.8102C16.5476 18.0728 16.4001 18.4288 16.4001 18.8002C16.4001 19.1715 16.5476 19.5276 16.8102 19.7901C17.0728 20.0527 17.4288 20.2002 17.8002 20.2002C18.1715 20.2002 18.5276 20.0527 18.7901 19.7901C19.0527 19.5276 19.2002 19.1715 19.2002 18.8002C19.2002 18.4288 19.0527 18.0728 18.7901 17.8102C18.5276 17.5476 18.1715 17.4001 17.8002 17.4001ZM15.0001 18.8002C15.0001 18.0575 15.2951 17.3453 15.8202 16.8202C16.3453 16.2951 17.0575 16.0001 17.8002 16.0001C18.5428 16.0001 19.255 16.2951 19.7801 16.8202C20.3052 17.3453 20.6002 18.0575 20.6002 18.8002C20.6002 19.5428 20.3052 20.255 19.7801 20.7801C19.255 21.3052 18.5428 21.6002 17.8002 21.6002C17.0575 21.6002 16.3453 21.3052 15.8202 20.7801C15.2951 20.255 15.0001 19.5428 15.0001 18.8002Z"></path>
  </symbol>

  <symbol xmlns="http://www.w3.org/2000/svg" viewBox="0 0 24 24" id="icon-close">
    <path fill="currentColor" d="M11.9999 10.586L17.6571 4.9288C18.0476 4.53834 18.6806 4.53834 19.0711 4.9288C19.4616 5.31927 19.4616 5.95234 19.0711 6.3428L13.4139 12L19.0711 17.6572C19.4616 18.0477 19.4616 18.6808 19.0711 19.0712C18.6806 19.4617 18.0476 19.4617 17.6571 19.0712L11.9999 13.414L6.34268 19.0712C5.95221 19.4617 5.31915 19.4617 4.92868 19.0712C4.53821 18.6808 4.53821 18.0477 4.92868 17.6572L10.5859 12L4.92868 6.3428C4.53821 5.95234 4.53821 5.31927 4.92868 4.9288C5.31915 4.53834 5.95221 4.53834 6.34268 4.9288L11.9999 10.586Z" ></path>
  </symbol>

  <symbol xmlns="http://www.w3.org/2000/svg" viewBox="0 0 24 24" id="icon-discounted">
    <circle cx="12" cy="12" r="12" fill="var(--bgc-color)"></circle>
      <path fill="currentColor" d="M11.2667 5.40002L17.8661 6.34336L18.8087 12.9434L12.6807 19.0714C12.5557 19.1963 12.3862 19.2666 12.2094 19.2666C12.0326 19.2666 11.8631 19.1963 11.7381 19.0714L5.13806 12.4714C5.01308 12.3463 4.94287 12.1768 4.94287 12C4.94287 11.8232 5.01308 11.6537 5.13806 11.5287L11.2667 5.40002ZM11.7381 6.81469L6.55206 12L12.2094 17.6567L17.3947 12.4714L16.6881 7.52136L11.7381 6.81469ZM13.1514 11.0574C12.9013 10.8072 12.7608 10.4679 12.7609 10.1141C12.7609 9.93896 12.7955 9.76552 12.8625 9.6037C12.9296 9.44189 13.0278 9.29486 13.1517 9.17102C13.2756 9.04719 13.4227 8.94896 13.5845 8.88196C13.7463 8.81496 13.9198 8.78049 14.095 8.78052C14.4487 8.78058 14.788 8.92117 15.0381 9.17136C15.2882 9.42155 15.4286 9.76084 15.4286 10.1146C15.4285 10.4684 15.2879 10.8076 15.0377 11.0577C14.7875 11.3078 14.4482 11.4483 14.0945 11.4482C13.7407 11.4481 13.4015 11.3075 13.1514 11.0574Z"></path>
  </symbol>
  <symbol fill="none" xmlns="http://www.w3.org/2000/svg" viewBox="0 0 24 24" id="icon-sale">
    <circle cx="12" cy="12" r="12" fill="var(--bgc-color)"></circle>
      <path fill="currentColor" d="M11.9999 5.33334C13.0608 5.33334 14.0782 5.75477 14.8283 6.50492C15.5785 7.25506 15.9999 8.27248 15.9999 9.33334V10H18.6666V11.3333H17.8886L17.3839 17.3887C17.37 17.5553 17.2941 17.7106 17.1711 17.8238C17.0481 17.937 16.8871 17.9999 16.7199 18H7.27992C7.11275 17.9999 6.95172 17.937 6.82873 17.8238C6.70575 17.7106 6.62979 17.5553 6.61592 17.3887L6.11059 11.3333H5.33325V10H7.99992V9.33334C7.99992 8.27248 8.42135 7.25506 9.17149 6.50492C9.92164 5.75477 10.9391 5.33334 11.9999 5.33334ZM16.5506 11.3333H7.44859L7.89325 16.6667H16.1059L16.5506 11.3333ZM12.6666 12.6667V15.3333H11.3333V12.6667H12.6666ZM9.99992 12.6667V15.3333H8.66658V12.6667H9.99992ZM15.3333 12.6667V15.3333H13.9999V12.6667H15.3333ZM11.9999 6.66668C11.3158 6.66668 10.6578 6.92963 10.162 7.40116C9.66632 7.87268 9.37079 8.5167 9.33659 9.20001L9.33325 9.33334V10H14.6666V9.33334C14.6666 8.64918 14.4036 7.99119 13.9321 7.49547C13.4606 6.99975 12.8166 6.70422 12.1333 6.67001L11.9999 6.66668Z"></path>
  </symbol>
  <symbol fill="none" xmlns="http://www.w3.org/2000/svg" viewBox="0 0 24 24" id="icon-stock">
    <circle cx="12" cy="12" r="12" fill="var(--bgc-color)"></circle>
      <path fill="currentColor" d="M15.6667 18C15.0478 18 14.4543 17.7542 14.0168 17.3166C13.5792 16.879 13.3333 16.2855 13.3333 15.6667C13.3333 15.0478 13.5792 14.4543 14.0168 14.0168C14.4543 13.5792 15.0478 13.3333 15.6667 13.3333C16.2855 13.3333 16.879 13.5792 17.3166 14.0168C17.7542 14.4543 18 15.0478 18 15.6667C18 16.2855 17.7542 16.879 17.3166 17.3166C16.879 17.7542 16.2855 18 15.6667 18ZM15.6667 16.6667C15.9319 16.6667 16.1862 16.5613 16.3738 16.3738C16.5613 16.1862 16.6667 15.9319 16.6667 15.6667C16.6667 15.4015 16.5613 15.1471 16.3738 14.9596C16.1862 14.772 15.9319 14.6667 15.6667 14.6667C15.4015 14.6667 15.1471 14.772 14.9596 14.9596C14.772 15.1471 14.6667 15.4015 14.6667 15.6667C14.6667 15.9319 14.772 16.1862 14.9596 16.3738C15.1471 16.5613 15.4015 16.6667 15.6667 16.6667ZM8.33333 10.6667C8.02692 10.6667 7.7235 10.6063 7.44041 10.4891C7.15731 10.3718 6.90009 10.1999 6.68342 9.98325C6.46675 9.76658 6.29488 9.50935 6.17761 9.22626C6.06035 8.94317 6 8.63975 6 8.33333C6 8.02692 6.06035 7.7235 6.17761 7.44041C6.29488 7.15731 6.46675 6.90009 6.68342 6.68342C6.90009 6.46675 7.15731 6.29488 7.44041 6.17761C7.7235 6.06035 8.02692 6 8.33333 6C8.95217 6 9.54566 6.24583 9.98325 6.68342C10.4208 7.121 10.6667 7.71449 10.6667 8.33333C10.6667 8.95217 10.4208 9.54566 9.98325 9.98325C9.54566 10.4208 8.95217 10.6667 8.33333 10.6667ZM8.33333 9.33333C8.59855 9.33333 8.8529 9.22798 9.04044 9.04044C9.22798 8.8529 9.33333 8.59855 9.33333 8.33333C9.33333 8.06812 9.22798 7.81376 9.04044 7.62623C8.8529 7.43869 8.59855 7.33333 8.33333 7.33333C8.06812 7.33333 7.81376 7.43869 7.62623 7.62623C7.43869 7.81376 7.33333 8.06812 7.33333 8.33333C7.33333 8.59855 7.43869 8.8529 7.62623 9.04044C7.81376 9.22798 8.06812 9.33333 8.33333 9.33333ZM16.714 6.34333L17.6567 7.286L7.28667 17.6567L6.344 16.714L16.7133 6.34333H16.714Z" ></path>
  </symbol>
  <symbol fill="none" xmlns="http://www.w3.org/2000/svg" viewBox="0 0 24 24" id="icon-user">
    <path fill="currentColor" d="M12.5 12.5C13.7598 12.5 14.968 11.9996 15.8588 11.1088C16.7496 10.218 17.25 9.00978 17.25 7.75C17.25 6.49022 16.7496 5.28204 15.8588 4.39124C14.968 3.50045 13.7598 3 12.5 3C11.2402 3 10.032 3.50045 9.14124 4.39124C8.25045 5.28204 7.75 6.49022 7.75 7.75C7.75 9.00978 8.25045 10.218 9.14124 11.1088C10.032 11.9996 11.2402 12.5 12.5 12.5ZM15.6667 7.75C15.6667 8.58985 15.333 9.39531 14.7392 9.98917C14.1453 10.583 13.3399 10.9167 12.5 10.9167C11.6601 10.9167 10.8547 10.583 10.2608 9.98917C9.66696 9.39531 9.33333 8.58985 9.33333 7.75C9.33333 6.91015 9.66696 6.10469 10.2608 5.51083C10.8547 4.91696 11.6601 4.58333 12.5 4.58333C13.3399 4.58333 14.1453 4.91696 14.7392 5.51083C15.333 6.10469 15.6667 6.91015 15.6667 7.75ZM22 20.4167C22 22 20.4167 22 20.4167 22H4.58333C4.58333 22 3 22 3 20.4167C3 18.8333 4.58333 14.0833 12.5 14.0833C20.4167 14.0833 22 18.8333 22 20.4167ZM20.4167 20.4103C20.4151 20.0208 20.1728 18.8492 19.0993 17.7757C18.067 16.7433 16.1243 15.6667 12.5 15.6667C8.87417 15.6667 6.933 16.7433 5.90067 17.7757C4.82717 18.8492 4.5865 20.0208 4.58333 20.4103H20.4167Z"></path>
  </symbol>
  <symbol xmlns="http://www.w3.org/2000/svg" viewBox="0 0 24 24" id="icon-favorit">
    <path fill="currentColor" d="M20.9755 3.68064C20.4326 3.14756 19.788 2.72474 19.0785 2.43637C18.3691 2.148 17.6087 1.99972 16.8408 2C16.073 2.00028 15.3127 2.14913 14.6035 2.43802C13.8942 2.72692 13.2499 3.1502 12.7074 3.68369L11.9992 4.3875L11.2969 3.68521L11.2923 3.68073C10.7496 3.1479 10.1054 2.72523 9.39629 2.43686C8.68723 2.14849 7.92726 2.00007 7.15978 2.00007C6.39229 2.00007 5.63232 2.14849 4.92326 2.43686C4.2142 2.72523 3.56993 3.1479 3.02724 3.68073L2.71174 3.9905C1.61573 5.0666 1 6.5261 1 8.04793C1 9.56976 1.61573 11.0293 2.71174 12.1054L11.0386 20.2808L11.9789 21.2482L12.0013 21.2261L12.0257 21.25L12.9067 20.3373L21.291 12.1052C22.3854 11.0283 23 9.5691 23 8.0478C23 6.5265 22.3854 5.06732 21.291 3.99036L20.9755 3.68064ZM20.2577 11.0909L12.0013 19.1974L3.7448 11.0909C2.9228 10.2838 2.46101 9.18919 2.46101 8.04782C2.46101 6.90645 2.9228 5.81182 3.7448 5.00475L4.06035 4.69498C4.88196 3.88831 5.99616 3.43494 7.15808 3.43451C8.32 3.43408 9.43456 3.88663 10.2568 4.6927L11.996 6.43147L13.7436 4.69498C14.1506 4.29536 14.6338 3.97836 15.1656 3.76208C15.6974 3.5458 16.2674 3.43449 16.843 3.43449C17.4186 3.43449 17.9886 3.5458 18.5204 3.76208C19.0522 3.97836 19.5354 4.29536 19.9424 4.69498L20.2579 5.0047C21.0786 5.81244 21.5396 6.90685 21.5395 8.04783C21.5395 9.18882 21.0785 10.2832 20.2577 11.0909Z"></path>
  </symbol>
  <symbol xmlns="http://www.w3.org/2000/svg" viewBox="0 0 24 24" id="icon-loupe">
    <path fill="currentColor" d="M20.71 19.29L17.31 15.9C18.407 14.5025 19.0022 12.7767 19 11C19 9.41775 18.5308 7.87103 17.6518 6.55544C16.7727 5.23985 15.5233 4.21447 14.0615 3.60897C12.5997 3.00347 10.9911 2.84504 9.43928 3.15372C7.88743 3.4624 6.46197 4.22433 5.34315 5.34315C4.22433 6.46197 3.4624 7.88743 3.15372 9.43928C2.84504 10.9911 3.00347 12.5997 3.60897 14.0615C4.21447 15.5233 5.23985 16.7727 6.55544 17.6518C7.87103 18.5308 9.41775 19 11 19C12.7767 19.0022 14.5025 18.407 15.9 17.31L19.29 20.71C19.383 20.8037 19.4936 20.8781 19.6154 20.9289C19.7373 20.9797 19.868 21.0058 20 21.0058C20.132 21.0058 20.2627 20.9797 20.3846 20.9289C20.5064 20.8781 20.617 20.8037 20.71 20.71C20.8037 20.617 20.8781 20.5064 20.9289 20.3846C20.9797 20.2627 21.0058 20.132 21.0058 20C21.0058 19.868 20.9797 19.7373 20.9289 19.6154C20.8781 19.4936 20.8037 19.383 20.71 19.29ZM5 11C5 9.81332 5.3519 8.65328 6.01119 7.66658C6.67047 6.67989 7.60755 5.91085 8.7039 5.45673C9.80026 5.0026 11.0067 4.88378 12.1705 5.11529C13.3344 5.3468 14.4035 5.91825 15.2426 6.75736C16.0818 7.59648 16.6532 8.66558 16.8847 9.82946C17.1162 10.9933 16.9974 12.1997 16.5433 13.2961C16.0892 14.3925 15.3201 15.3295 14.3334 15.9888C13.3467 16.6481 12.1867 17 11 17C9.4087 17 7.88258 16.3679 6.75736 15.2426C5.63214 14.1174 5 12.5913 5 11Z"></path>
  </symbol>


  <symbol viewBox="0 0 20 20" fill="none" xmlns="http://www.w3.org/2000/svg" id="icon-audio-video">
    <path fill="currentColor" d="M15 1.25H5C4.66848 1.25 4.35054 1.3817 4.11612 1.61612C3.8817 1.85054 3.75 2.16848 3.75 2.5V17.5C3.75 17.8315 3.8817 18.1495 4.11612 18.3839C4.35054 18.6183 4.66848 18.75 5 18.75H15C15.3315 18.75 15.6495 18.6183 15.8839 18.3839C16.1183 18.1495 16.25 17.8315 16.25 17.5V2.5C16.25 2.16848 16.1183 1.85054 15.8839 1.61612C15.6495 1.3817 15.3315 1.25 15 1.25ZM5 17.5V2.5H15V17.5H5ZM10 8.75C9.25832 8.75 8.5333 8.96993 7.91661 9.38199C7.29993 9.79404 6.81928 10.3797 6.53545 11.0649C6.25162 11.7502 6.17736 12.5042 6.32206 13.2316C6.46675 13.959 6.8239 14.6272 7.34835 15.1517C7.8728 15.6761 8.54098 16.0333 9.26841 16.1779C9.99584 16.3226 10.7498 16.2484 11.4351 15.9645C12.1203 15.6807 12.706 15.2001 13.118 14.5834C13.5301 13.9667 13.75 13.2417 13.75 12.5C13.75 11.5054 13.3549 10.5516 12.6517 9.84835C11.9484 9.14509 10.9946 8.75 10 8.75ZM10 15C9.50555 15 9.0222 14.8534 8.61107 14.5787C8.19995 14.304 7.87952 13.9135 7.6903 13.4567C7.50108 12.9999 7.45157 12.4972 7.54804 12.0123C7.6445 11.5273 7.8826 11.0819 8.23223 10.7322C8.58186 10.3826 9.02732 10.1445 9.51227 10.048C9.99723 9.95157 10.4999 10.0011 10.9567 10.1903C11.4135 10.3795 11.804 10.7 12.0787 11.1111C12.3534 11.5222 12.5 12.0055 12.5 12.5C12.5 13.163 12.2366 13.7989 11.7678 14.2678C11.2989 14.7366 10.663 15 10 15ZM10 7.5C10.3708 7.5 10.7334 7.39003 11.0417 7.18401C11.35 6.97798 11.5904 6.68514 11.7323 6.34253C11.8742 5.99992 11.9113 5.62292 11.839 5.25921C11.7666 4.89549 11.588 4.5614 11.3258 4.29917C11.0636 4.03695 10.7295 3.85838 10.3658 3.78603C10.0021 3.71368 9.62508 3.75081 9.28247 3.89273C8.93986 4.03464 8.64702 4.27496 8.44099 4.58331C8.23497 4.89165 8.125 5.25416 8.125 5.625C8.125 6.12228 8.32254 6.5992 8.67417 6.95083C9.0258 7.30246 9.50272 7.5 10 7.5ZM10 5C10.1236 5 10.2445 5.03666 10.3472 5.10533C10.45 5.17401 10.5301 5.27162 10.5774 5.38582C10.6247 5.50003 10.6371 5.62569 10.613 5.74693C10.5889 5.86817 10.5293 5.97953 10.4419 6.06694C10.3545 6.15435 10.2432 6.21388 10.1219 6.23799C10.0007 6.26211 9.87503 6.24973 9.76082 6.20243C9.64662 6.15512 9.54901 6.07501 9.48033 5.97223C9.41166 5.86945 9.375 5.74861 9.375 5.625C9.375 5.45924 9.44085 5.30027 9.55806 5.18306C9.67527 5.06585 9.83424 5 10 5ZM10 10.625C9.62916 10.625 9.26665 10.735 8.95831 10.941C8.64996 11.147 8.40964 11.4399 8.26773 11.7825C8.12581 12.1251 8.08868 12.5021 8.16103 12.8658C8.23337 13.2295 8.41195 13.5636 8.67417 13.8258C8.9364 14.088 9.27049 14.2666 9.63421 14.339C9.99792 14.4113 10.3749 14.3742 10.7175 14.2323C11.0601 14.0904 11.353 13.85 11.559 13.5417C11.765 13.2334 11.875 12.8708 11.875 12.5C11.875 12.0027 11.6775 11.5258 11.3258 11.1742C10.9742 10.8225 10.4973 10.625 10 10.625ZM10 13.125C9.87639 13.125 9.75555 13.0883 9.65277 13.0197C9.54999 12.951 9.46988 12.8534 9.42257 12.7392C9.37527 12.625 9.36289 12.4993 9.38701 12.3781C9.41112 12.2568 9.47065 12.1455 9.55806 12.0581C9.64547 11.9706 9.75683 11.9111 9.87807 11.887C9.99931 11.8629 10.125 11.8753 10.2392 11.9226C10.3534 11.9699 10.451 12.05 10.5197 12.1528C10.5883 12.2555 10.625 12.3764 10.625 12.5C10.625 12.6658 10.5592 12.8247 10.4419 12.9419C10.3247 13.0592 10.1658 13.125 10 13.125ZM14.375 3.75C14.375 3.87361 14.3383 3.99445 14.2697 4.09723C14.201 4.20001 14.1034 4.28012 13.9892 4.32742C13.875 4.37473 13.7493 4.38711 13.6281 4.36299C13.5068 4.33888 13.3955 4.27935 13.3081 4.19194C13.2206 4.10453 13.1611 3.99317 13.137 3.87193C13.1129 3.75069 13.1253 3.62503 13.1726 3.51082C13.2199 3.39662 13.3 3.29901 13.4028 3.23033C13.5055 3.16166 13.6264 3.125 13.75 3.125C13.9158 3.125 14.0747 3.19085 14.1919 3.30806C14.3092 3.42527 14.375 3.58424 14.375 3.75ZM5.625 3.75C5.625 3.58424 5.69085 3.42527 5.80806 3.30806C5.92527 3.19085 6.08424 3.125 6.25 3.125C6.37361 3.125 6.49445 3.16166 6.59723 3.23033C6.70001 3.29901 6.78012 3.39662 6.82742 3.51082C6.87473 3.62503 6.88711 3.75069 6.86299 3.87193C6.83888 3.99317 6.77935 4.10453 6.69194 4.19194C6.60453 4.27935 6.49317 4.33888 6.37193 4.36299C6.25069 4.38711 6.12503 4.37473 6.01082 4.32742C5.89662 4.28012 5.79901 4.20001 5.73033 4.09723C5.66166 3.99445 5.625 3.87361 5.625 3.75Z" />
  </symbol>
  <symbol viewBox="0 0 20 20" fill="none" xmlns="http://www.w3.org/2000/svg" id="icon-beauty">
    <g fill="currentColor"> 
      <path d="M18.1641 3.59375H17.7734C17.4498 3.59375 17.1875 3.85609 17.1875 4.17969C17.1875 4.50328 17.4498 4.76562 17.7734 4.76562H18.1641C18.4877 4.76562 18.75 4.50328 18.75 4.17969C18.75 3.85609 18.4877 3.59375 18.1641 3.59375Z"/>
      <path d="M18.1641 5.9375H17.7734C17.4498 5.9375 17.1875 6.19984 17.1875 6.52344C17.1875 6.84703 17.4498 7.10938 17.7734 7.10938H18.1641C18.4877 7.10938 18.75 6.84703 18.75 6.52344C18.75 6.19984 18.4877 5.9375 18.1641 5.9375Z"/>
      <path d="M18.1641 8.28125H17.7734C17.4498 8.28125 17.1875 8.54359 17.1875 8.86719C17.1875 9.19078 17.4498 9.45312 17.7734 9.45312H18.1641C18.4877 9.45312 18.75 9.19078 18.75 8.86719C18.75 8.54359 18.4877 8.28125 18.1641 8.28125Z"/>
      <path d="M6.52344 3.59375C4.90801 3.59375 3.59375 4.90801 3.59375 6.52344C3.59375 8.13887 4.90801 9.45312 6.52344 9.45312C8.13887 9.45312 9.45312 8.13887 9.45312 6.52344C9.45312 4.90801 8.13887 3.59375 6.52344 3.59375ZM6.52344 8.28125C5.55418 8.28125 4.76562 7.4927 4.76562 6.52344C4.76562 5.55418 5.55418 4.76562 6.52344 4.76562C7.4927 4.76562 8.28125 5.55418 8.28125 6.52344C8.28125 7.4927 7.4927 8.28125 6.52344 8.28125Z"/>
      <path d="M15.6436 3.5966C15.227 3.55539 10.7613 2.95926 10.3747 2.92102C9.37844 1.85613 7.98828 1.25 6.52344 1.25C3.61566 1.25 1.25 3.61566 1.25 6.52344C1.25 8.36156 2.20508 10.0584 3.76039 11.0159L4.59922 14.3231C4.72543 15.048 5.25617 15.6102 5.9375 15.7946V15.8203C5.9375 17.4357 7.25176 18.75 8.86719 18.75C10.4826 18.75 11.7969 17.4357 11.7969 15.8203V15.6641C11.7969 15.341 12.0597 15.0781 12.3828 15.0781C12.7059 15.0781 12.9688 15.341 12.9688 15.6641V18.1641C12.9688 18.4877 13.2311 18.75 13.5547 18.75C13.8783 18.75 14.1406 18.4877 14.1406 18.1641V15.6641C14.1406 14.6948 13.3521 13.9062 12.3828 13.9062C11.4136 13.9062 10.625 14.6948 10.625 15.6641V15.8203C10.625 16.7896 9.83644 17.5781 8.86719 17.5781C7.89793 17.5781 7.10938 16.7896 7.10938 15.8203V15.7286C7.79504 15.4559 8.28125 14.7862 8.28125 14.0046V13.5156H8.86719C9.19078 13.5156 9.45312 13.2533 9.45312 12.9297C9.45312 12.6061 9.19078 12.3438 8.86719 12.3438H8.28125V11.497C9.07867 11.2161 9.79277 10.7489 10.3748 10.1259C10.7668 10.0871 15.2278 9.49141 15.6436 9.45031C15.9434 9.42062 16.1719 9.16844 16.1719 8.86719V4.17969C16.1719 3.87844 15.9434 3.62625 15.6436 3.5966ZM10.0324 8.98211C9.8818 8.99699 9.74273 9.06965 9.64445 9.18477C9.09203 9.83184 8.36758 10.2852 7.54926 10.4958C7.29031 10.5625 7.10934 10.7959 7.10934 11.0632V14.0046C7.10934 14.3811 6.80297 14.6875 6.42645 14.6875C6.09121 14.6875 5.80793 14.4475 5.75281 14.1169C5.74977 14.0984 5.44895 13.3403 4.85312 10.5191C4.81777 10.3516 4.7109 10.208 4.5607 10.1259C3.24141 9.40539 2.42188 8.025 2.42188 6.52344C2.42188 4.26184 4.26184 2.42188 6.52344 2.42188C7.72555 2.42188 8.86312 2.9468 9.64445 3.86211C9.74273 3.97727 9.88176 4.04988 10.0324 4.06477L12.6562 4.47875V8.56812L10.0324 8.98211ZM15 8.33633L13.8281 8.45223V4.59465L15 4.71055V8.33633Z"/>
    </g>
  </symbol>
  <symbol xmlns="http://www.w3.org/2000/svg" viewBox="0 0 20 20" id="icon-climat">
    <path fill="currentColor" d="M17.5 1.875H2.5C2.16848 1.875 1.85054 2.0067 1.61612 2.24112C1.3817 2.47554 1.25 2.79348 1.25 3.125V9.375C1.25 9.70652 1.3817 10.0245 1.61612 10.2589C1.85054 10.4933 2.16848 10.625 2.5 10.625H17.5C17.8315 10.625 18.1495 10.4933 18.3839 10.2589C18.6183 10.0245 18.75 9.70652 18.75 9.375V3.125C18.75 2.79348 18.6183 2.47554 18.3839 2.24112C18.1495 2.0067 17.8315 1.875 17.5 1.875ZM17.5 3.125V7.5H2.5V3.125H17.5ZM2.5 9.375V8.75H17.5V9.375H2.5ZM15.625 6.25C15.625 6.08424 15.6908 5.92527 15.8081 5.80806C15.9253 5.69085 16.0842 5.625 16.25 5.625C16.3736 5.625 16.4945 5.66166 16.5972 5.73033C16.7 5.79901 16.7801 5.89662 16.8274 6.01082C16.8747 6.12503 16.8871 6.25069 16.863 6.37193C16.8389 6.49317 16.7794 6.60453 16.6919 6.69194C16.6045 6.77935 16.4932 6.83888 16.3719 6.86299C16.2507 6.88711 16.125 6.87473 16.0108 6.82743C15.8966 6.78012 15.799 6.70001 15.7303 6.59723C15.6617 6.49445 15.625 6.37361 15.625 6.25ZM13.75 6.25C13.75 6.08424 13.8158 5.92527 13.9331 5.80806C14.0503 5.69085 14.2092 5.625 14.375 5.625C14.4986 5.625 14.6195 5.66166 14.7222 5.73033C14.825 5.79901 14.9051 5.89662 14.9524 6.01082C14.9997 6.12503 15.0121 6.25069 14.988 6.37193C14.9639 6.49317 14.9044 6.60453 14.8169 6.69194C14.7295 6.77935 14.6182 6.83888 14.4969 6.86299C14.3757 6.88711 14.25 6.87473 14.1358 6.82743C14.0216 6.78012 13.924 6.70001 13.8553 6.59723C13.7867 6.49445 13.75 6.37361 13.75 6.25ZM10.4375 14.55C10.6904 14.7532 10.8945 15.0106 11.0348 15.3032C11.175 15.5958 11.2478 15.9162 11.2478 16.2406C11.2478 16.5651 11.175 16.8854 11.0348 17.178C10.8945 17.4706 10.6904 17.728 10.4375 17.9312C10.3809 17.9907 10.3131 18.0384 10.238 18.0716C10.163 18.1049 10.0821 18.123 10 18.125C9.87714 18.1245 9.75715 18.0878 9.65504 18.0195C9.55292 17.9511 9.47321 17.8542 9.42586 17.7409C9.37851 17.6275 9.36563 17.5027 9.38882 17.382C9.41201 17.2614 9.47025 17.1502 9.55625 17.0625C9.86875 16.75 10.0063 16.6 10.0063 16.25C10.0063 15.9 9.86875 15.75 9.5625 15.4437C9.31058 15.2399 9.10741 14.9822 8.96785 14.6897C8.82829 14.3972 8.75586 14.0772 8.75586 13.7531C8.75586 13.429 8.82829 13.109 8.96785 12.8165C9.10741 12.524 9.31058 12.2664 9.5625 12.0625C9.62077 12.0042 9.68996 11.958 9.76609 11.9265C9.84223 11.8949 9.92384 11.8787 10.0063 11.8787C10.0887 11.8787 10.1703 11.8949 10.2464 11.9265C10.3225 11.958 10.3917 12.0042 10.45 12.0625C10.5083 12.1208 10.5545 12.19 10.586 12.2661C10.6176 12.3422 10.6338 12.4238 10.6338 12.5063C10.6338 12.5887 10.6176 12.6703 10.586 12.7464C10.5545 12.8225 10.5083 12.8917 10.45 12.95C10.1437 13.2562 10.0063 13.4062 10.0063 13.7563C10.0063 14.1062 10.1375 14.2438 10.4375 14.55ZM13.5625 14.55C13.8154 14.7532 14.0195 15.0106 14.1598 15.3032C14.3 15.5958 14.3728 15.9162 14.3728 16.2406C14.3728 16.5651 14.3 16.8854 14.1598 17.178C14.0195 17.4706 13.8154 17.728 13.5625 17.9312C13.5059 17.9907 13.4381 18.0384 13.363 18.0716C13.288 18.1049 13.2071 18.123 13.125 18.125C13.0021 18.1245 12.8822 18.0878 12.78 18.0195C12.6779 17.9511 12.5982 17.8542 12.5509 17.7409C12.5035 17.6275 12.4906 17.5027 12.5138 17.382C12.537 17.2614 12.5952 17.1502 12.6813 17.0625C12.9938 16.75 13.1313 16.6 13.1313 16.25C13.1313 15.9 12.9937 15.75 12.6875 15.4437C12.4356 15.2399 12.2324 14.9822 12.0929 14.6897C11.9533 14.3972 11.8809 14.0772 11.8809 13.7531C11.8809 13.429 11.9533 13.109 12.0929 12.8165C12.2324 12.524 12.4356 12.2664 12.6875 12.0625C12.7458 12.0042 12.815 11.958 12.8911 11.9265C12.9672 11.8949 13.0488 11.8787 13.1313 11.8787C13.2137 11.8787 13.2953 11.8949 13.3714 11.9265C13.4475 11.958 13.5167 12.0042 13.575 12.0625C13.6333 12.1208 13.6795 12.19 13.711 12.2661C13.7426 12.3422 13.7588 12.4238 13.7588 12.5063C13.7588 12.5887 13.7426 12.6703 13.711 12.7464C13.6795 12.8225 13.6333 12.8917 13.575 12.95C13.2687 13.2562 13.1313 13.4062 13.1313 13.7563C13.1313 14.1062 13.2625 14.2438 13.5625 14.55ZM7.3125 14.55C7.56544 14.7532 7.76955 15.0106 7.90979 15.3032C8.05004 15.5958 8.12285 15.9162 8.12285 16.2406C8.12285 16.5651 8.05004 16.8854 7.90979 17.178C7.76955 17.4706 7.56544 17.728 7.3125 17.9312C7.25588 17.9907 7.18809 18.0384 7.11303 18.0716C7.03796 18.1049 6.95708 18.123 6.875 18.125C6.75214 18.1245 6.63215 18.0878 6.53004 18.0195C6.42792 17.9511 6.34821 17.8542 6.30086 17.7409C6.25351 17.6275 6.24063 17.5027 6.26382 17.382C6.28701 17.2614 6.34525 17.1502 6.43125 17.0625C6.74375 16.75 6.88125 16.6 6.88125 16.25C6.88125 15.9 6.74375 15.75 6.4375 15.4437C6.18558 15.2399 5.98241 14.9822 5.84285 14.6897C5.70329 14.3972 5.63086 14.0772 5.63086 13.7531C5.63086 13.429 5.70329 13.109 5.84285 12.8165C5.98241 12.524 6.18558 12.2664 6.4375 12.0625C6.55519 11.9448 6.71481 11.8787 6.88125 11.8787C7.04769 11.8787 7.20731 11.9448 7.325 12.0625C7.44269 12.1802 7.50881 12.3398 7.50881 12.5063C7.50881 12.6727 7.44269 12.8323 7.325 12.95C7.01875 13.2562 6.88125 13.4062 6.88125 13.7563C6.88125 14.1062 7.0125 14.2438 7.3125 14.55Z"></path>
  </symbol>

  <symbol fill="none" xmlns="http://www.w3.org/2000/svg" viewBox="0 0 20 20" id="icon-dishwasher">
    <g fill="currentColor">
      <path d="M16.1328 1.25H3.86719C2.83344 1.25 1.99219 2.09125 1.99219 3.125V16.875C1.99219 17.9088 2.83344 18.75 3.86719 18.75H16.1328C17.1666 18.75 18.0078 17.9088 18.0078 16.875V3.125C18.0078 2.09125 17.1666 1.25 16.1328 1.25ZM16.7578 16.875C16.7578 17.2194 16.4772 17.5 16.1328 17.5H3.86719C3.52281 17.5 3.24219 17.2194 3.24219 16.875V3.125C3.24219 2.78062 3.52281 2.5 3.86719 2.5H16.1328C16.4772 2.5 16.7578 2.78062 16.7578 3.125V16.875Z"></path>
      <path d="M6.28906 3.63281H5.11719C4.79359 3.63281 4.53125 3.89516 4.53125 4.21875C4.53125 4.54234 4.79359 4.80469 5.11719 4.80469H6.28906C6.61266 4.80469 6.875 4.54234 6.875 4.21875C6.875 3.89516 6.61266 3.63281 6.28906 3.63281Z" ></path>
      <path d="M9.49219 3.63281H8.32031C7.99672 3.63281 7.73438 3.89516 7.73438 4.21875C7.73438 4.54234 7.99672 4.80469 8.32031 4.80469H9.49219C9.81578 4.80469 10.0781 4.54234 10.0781 4.21875C10.0781 3.89516 9.81578 3.63281 9.49219 3.63281Z" ></path>
      <path d="M14.2188 4.21875C14.2188 4.05299 14.2846 3.89402 14.4018 3.77681C14.519 3.6596 14.678 3.59375 14.8438 3.59375C14.9674 3.59375 15.0882 3.63041 15.191 3.69908C15.2938 3.76776 15.3739 3.86537 15.4212 3.97957C15.4685 4.09378 15.4809 4.21944 15.4567 4.34068C15.4326 4.46192 15.3731 4.57328 15.2857 4.66069C15.1983 4.7481 15.0869 4.80763 14.9657 4.83174C14.8444 4.85586 14.7188 4.84348 14.6046 4.79617C14.4904 4.74887 14.3928 4.66876 14.3241 4.56598C14.2554 4.4632 14.2188 4.34236 14.2188 4.21875ZM12.3438 4.21875C12.3438 4.05299 12.4096 3.89402 12.5268 3.77681C12.644 3.6596 12.803 3.59375 12.9688 3.59375C13.0924 3.59375 13.2132 3.63041 13.316 3.69908C13.4188 3.76776 13.4989 3.86537 13.5462 3.97957C13.5935 4.09378 13.6059 4.21944 13.5817 4.34068C13.5576 4.46192 13.4981 4.57328 13.4107 4.66069C13.3233 4.7481 13.2119 4.80763 13.0907 4.83174C12.9694 4.85586 12.8438 4.84348 12.7296 4.79617C12.6154 4.74887 12.5178 4.66876 12.4491 4.56598C12.3804 4.4632 12.3438 4.34236 12.3438 4.21875Z"></path>
      <path d="M14.2665 6.01562H5.73351C5.07046 6.01562 4.53125 6.55428 4.53125 7.21663V15.2052C4.53125 15.8676 5.07046 16.4062 5.73351 16.4062H14.2665C14.9295 16.4062 15.4688 15.8676 15.4688 15.2052V7.21663C15.4688 6.55428 14.9295 6.01562 14.2665 6.01562ZM5.73351 15.2052V7.21663H14.2665L14.2673 15.2052H5.73351Z" ></path>
      <path d="M9.47261 12.2689V13.3985H8.94541C8.65419 13.3985 8.41802 13.6347 8.41802 13.9259C8.41802 14.2171 8.65419 14.4531 8.94541 14.4531H11.0546C11.3458 14.4531 11.582 14.2171 11.582 13.9259C11.582 13.6347 11.3458 13.3985 11.0546 13.3985H10.5274V12.2689C11.4561 12.0297 12.1063 11.1935 12.1094 10.2344V8.65241C12.1094 8.51259 12.054 8.37837 11.9549 8.2795C11.856 8.18043 11.7218 8.125 11.582 8.125H8.41802C8.2782 8.125 8.14399 8.18043 8.04512 8.2795C7.94605 8.37837 7.89062 8.51259 7.89062 8.65241V10.2344C7.89371 11.1935 8.54393 12.0297 9.47261 12.2689ZM8.94541 9.17982H11.0546V10.2344C11.0546 10.8169 10.5824 11.2891 10 11.2891C9.41757 11.2891 8.94541 10.8169 8.94541 10.2344V9.17982Z" ></path>
    </g>
  </symbol>
  <symbol xmlns="http://www.w3.org/2000/svg" viewBox="0 0 20 20" id="icon-dropdown-arrow">
    <path fill="currentColor" d="M9.99999 10.9767L14.125 6.85168L15.3033 8.03002L9.99999 13.3334L4.69666 8.03002L5.87499 6.85168L9.99999 10.9767Z"></path>
  </symbol>
  <symbol xmlns="http://www.w3.org/2000/svg" viewBox="0 0 20 20" id="icon-geo">
    <g fill="currentColor" >
      <path d="M15.2075 11.175C14.5525 12.5025 13.665 13.825 12.7575 15.0125C11.8966 16.132 10.9761 17.2044 10 18.225C9.02385 17.2044 8.10336 16.132 7.2425 15.0125C6.335 13.825 5.4475 12.5025 4.7925 11.175C4.13 9.83375 3.75 8.5775 3.75 7.5C3.75 5.8424 4.40848 4.25269 5.58058 3.08058C6.75269 1.90848 8.3424 1.25 10 1.25C11.6576 1.25 13.2473 1.90848 14.4194 3.08058C15.5915 4.25269 16.25 5.8424 16.25 7.5C16.25 8.5775 15.8688 9.83375 15.2075 11.175ZM10 20C10 20 17.5 12.8925 17.5 7.5C17.5 5.51088 16.7098 3.60322 15.3033 2.1967C13.8968 0.790176 11.9891 0 10 0C8.01088 0 6.10322 0.790176 4.6967 2.1967C3.29018 3.60322 2.5 5.51088 2.5 7.5C2.5 12.8925 10 20 10 20Z" ></path>
      <path d="M10 10C9.33696 10 8.70107 9.73661 8.23223 9.26777C7.76339 8.79893 7.5 8.16304 7.5 7.5C7.5 6.83696 7.76339 6.20107 8.23223 5.73223C8.70107 5.26339 9.33696 5 10 5C10.663 5 11.2989 5.26339 11.7678 5.73223C12.2366 6.20107 12.5 6.83696 12.5 7.5C12.5 8.16304 12.2366 8.79893 11.7678 9.26777C11.2989 9.73661 10.663 10 10 10ZM10 11.25C10.9946 11.25 11.9484 10.8549 12.6517 10.1517C13.3549 9.44839 13.75 8.49456 13.75 7.5C13.75 6.50544 13.3549 5.55161 12.6517 4.84835C11.9484 4.14509 10.9946 3.75 10 3.75C9.00544 3.75 8.05161 4.14509 7.34835 4.84835C6.64509 5.55161 6.25 6.50544 6.25 7.5C6.25 8.49456 6.64509 9.44839 7.34835 10.1517C8.05161 10.8549 9.00544 11.25 10 11.25Z" ></path>
    </g>
  </symbol>
  <symbol xmlns="http://www.w3.org/2000/svg" viewBox="0 0 20 20" id="icon-goods4home">
    <path fill="currentColor" d="M15.3516 13.2031C15.284 13.2031 15.2172 13.2063 15.1507 13.2108L14.922 12.6012L18.3745 5.92847C18.4663 5.74682 18.4573 5.53054 18.3507 5.35718C18.2441 5.18382 18.0551 5.07815 17.8516 5.07815C17.8516 5.07815 17.2852 5.07815 17.0683 5.07815C16.7383 3.71097 15.5273 2.92972 14.3359 2.92972C13.1445 2.92972 13.6002 2.92965 11.3281 2.92972C9.05605 2.92979 9.75427 2.92972 8.32031 2.92972C7.12891 2.92972 5.95703 3.69144 5.58594 5.07815C5.25486 5.07815 4.66004 5.07815 4.66004 5.07815L4.30234 3.28964C4.10219 2.2889 3.21617 1.56253 2.19563 1.56253H1.52344C1.19984 1.56253 0.9375 1.82487 0.9375 2.14847C0.9375 2.47206 1.19984 2.7344 1.52344 2.7344H2.19563C2.65953 2.7344 3.06227 3.06456 3.15324 3.51944L5 12.5971V17.4263C5 18.3285 5.73402 19.0625 6.63625 19.0625C7.3927 19.0625 8.04637 18.5493 8.22578 17.8144L9.56164 13.125H13.8511L14.0215 13.5238C13.073 14.0093 12.4219 14.9962 12.4219 16.1328C12.4219 17.7483 13.7361 19.0625 15.3516 19.0625C16.967 19.0625 18.2812 17.7483 18.2812 16.1328C18.2812 14.5174 16.967 13.2031 15.3516 13.2031ZM8.32031 4.10159C9.49219 4.10159 9.53293 4.10159 11.3281 4.10159C13.1233 4.10159 13.3398 4.10159 14.3359 4.10159C15.0977 4.10159 15.625 4.58987 15.8359 5.07815C13.4531 5.07815 8.89062 5.07815 6.82031 5.07815C7.01172 4.6094 7.55859 4.10159 8.32031 4.10159ZM7.08738 17.5364C7.03645 17.745 6.85094 17.8906 6.63625 17.8906C6.3802 17.8906 6.17188 17.6823 6.17188 17.4263V13.125H8.35531L7.08738 17.5364ZM13.9365 11.9531H6.06629L4.89441 6.25003H16.8988L13.9365 11.9531ZM15.3516 17.8906C14.3823 17.8906 13.5938 17.1021 13.5938 16.1328C13.5938 15.5378 13.8912 15.0112 14.345 14.693L14.7868 16.2892C14.8732 16.601 15.196 16.7839 15.5079 16.6976C15.8197 16.6112 16.0026 16.2884 15.9163 15.9765L15.4743 14.3798C16.3865 14.4431 17.1094 15.2049 17.1094 16.1328C17.1094 17.1021 16.3209 17.8906 15.3516 17.8906Z" ></path>
  </symbol>
  <symbol xmlns="http://www.w3.org/2000/svg" viewBox="0 0 20 20" id="icon-goods4kids">
    <path fill="currentColor" d="M13.125 1.25H11.25C11.0843 1.25 10.9253 1.31585 10.8081 1.43306C10.6909 1.55027 10.625 1.70924 10.625 1.875V6.875H7.16879L5.62504 3.15625C5.38108 2.59726 4.97888 2.12187 4.46801 1.7887C3.95714 1.45552 3.35995 1.27913 2.75004 1.28125H1.87504C1.73695 1.31272 1.61365 1.39015 1.52533 1.50086C1.43702 1.61158 1.38892 1.749 1.38892 1.89063C1.38892 2.03225 1.43702 2.16967 1.52533 2.28039C1.61365 2.3911 1.73695 2.46853 1.87504 2.5H2.71879C3.08684 2.5003 3.44666 2.60891 3.7534 2.8123C4.06015 3.01568 4.30025 3.30485 4.44379 3.64375L5.81254 6.875H4.37504C4.20928 6.875 4.05031 6.94085 3.9331 7.05806C3.81589 7.17527 3.75004 7.33424 3.75004 7.5V10.625C3.75004 11.288 4.01343 11.9239 4.48227 12.3928C4.95111 12.8616 5.587 13.125 6.25004 13.125H7.95004L7.26879 13.975C6.94949 13.8272 6.60191 13.7504 6.25004 13.75C5.78211 13.7485 5.32316 13.8783 4.92537 14.1247C4.52758 14.3712 4.20694 14.7243 3.99992 15.1439C3.79289 15.5636 3.7078 16.0329 3.75431 16.4985C3.80082 16.9641 3.97707 17.4073 4.26302 17.7777C4.54896 18.1481 4.93312 18.4308 5.37179 18.5937C5.81046 18.7565 6.28604 18.793 6.74442 18.699C7.2028 18.6049 7.62558 18.3841 7.96467 18.0617C8.30377 17.7392 8.54556 17.3281 8.66254 16.875H13.8375C13.9545 17.3281 14.1963 17.7392 14.5354 18.0617C14.8745 18.3841 15.2973 18.6049 15.7557 18.699C16.2141 18.793 16.6896 18.7565 17.1283 18.5937C17.567 18.4308 17.9511 18.1481 18.2371 17.7777C18.523 17.4073 18.6993 16.9641 18.7458 16.4985C18.7923 16.0329 18.7072 15.5636 18.5002 15.1439C18.2931 14.7243 17.9725 14.3712 17.5747 14.1247C17.1769 13.8783 16.718 13.7485 16.25 13.75C15.8982 13.7504 15.5506 13.8272 15.2313 13.975L14.55 13.125H16.25C16.9131 13.125 17.549 12.8616 18.0178 12.3928C18.4867 11.9239 18.75 11.288 18.75 10.625V6.875C18.75 5.38316 18.1574 3.95242 17.1025 2.89752C16.0476 1.84263 14.6169 1.25 13.125 1.25ZM11.875 2.5H13.125C14.2854 2.5 15.3982 2.96094 16.2186 3.78141C17.0391 4.60188 17.5 5.71468 17.5 6.875H11.875V2.5ZM6.25004 17.5C6.00281 17.5 5.76114 17.4267 5.55558 17.2893C5.35002 17.152 5.1898 16.9568 5.09519 16.7284C5.00058 16.4999 4.97583 16.2486 5.02406 16.0061C5.07229 15.7637 5.19134 15.5409 5.36616 15.3661C5.54097 15.1913 5.7637 15.0722 6.00618 15.024C6.24865 14.9758 6.49999 15.0005 6.7284 15.0951C6.9568 15.1898 7.15203 15.35 7.28938 15.5555C7.42673 15.7611 7.50004 16.0028 7.50004 16.25C7.50004 16.5815 7.36835 16.8995 7.13392 17.1339C6.8995 17.3683 6.58156 17.5 6.25004 17.5ZM17.5 16.25C17.5 16.4972 17.4267 16.7389 17.2894 16.9445C17.152 17.15 16.9568 17.3102 16.7284 17.4049C16.5 17.4995 16.2487 17.5242 16.0062 17.476C15.7637 17.4277 15.541 17.3087 15.3662 17.1339C15.1913 16.9591 15.0723 16.7363 15.0241 16.4939C14.9758 16.2514 15.0006 16.0001 15.0952 15.7716C15.1898 15.5432 15.35 15.348 15.5556 15.2107C15.7611 15.0733 16.0028 15 16.25 15C16.5816 15 16.8995 15.1317 17.1339 15.3661C17.3684 15.6005 17.5 15.9185 17.5 16.25ZM14.2563 14.7563C14.0602 15.0151 13.9179 15.3104 13.8375 15.625H8.66254C8.58221 15.3104 8.43984 15.0151 8.24379 14.7563L9.55004 13.125H12.95L14.2563 14.7563ZM17.5 10.625C17.5 10.9565 17.3684 11.2745 17.1339 11.5089C16.8995 11.7433 16.5816 11.875 16.25 11.875H6.25004C5.91852 11.875 5.60058 11.7433 5.36616 11.5089C5.13174 11.2745 5.00004 10.9565 5.00004 10.625V8.125H6.34379L7.23754 10.2437C7.28539 10.3567 7.36542 10.4531 7.46767 10.5209C7.56992 10.5887 7.68986 10.6249 7.81254 10.625C7.89617 10.6234 7.9788 10.6065 8.05629 10.575C8.20871 10.5103 8.3292 10.3877 8.39131 10.2342C8.45341 10.0806 8.45206 9.90876 8.38754 9.75625L7.70004 8.125H17.5V10.625Z" ></path>
  </symbol>
  <symbol xmlns="http://www.w3.org/2000/svg" viewBox="0 0 20 20" id="icon-holod">
    <path fill="currentColor" d="M14.375 1.25H5.625C5.29348 1.25 4.97554 1.3817 4.74112 1.61612C4.5067 1.85054 4.375 2.16848 4.375 2.5V17.5C4.375 17.8315 4.5067 18.1495 4.74112 18.3839C4.97554 18.6183 5.29348 18.75 5.625 18.75H14.375C14.7065 18.75 15.0245 18.6183 15.2589 18.3839C15.4933 18.1495 15.625 17.8315 15.625 17.5V2.5C15.625 2.16848 15.4933 1.85054 15.2589 1.61612C15.0245 1.3817 14.7065 1.25 14.375 1.25ZM5.625 2.5H14.375V8.125H5.625V2.5ZM5.625 17.5V9.375H14.375V17.5H5.625ZM7.5 5.625V6.875C7.5 7.04076 7.43415 7.19973 7.31694 7.31694C7.19973 7.43415 7.04076 7.5 6.875 7.5C6.70924 7.5 6.55027 7.43415 6.43306 7.31694C6.31585 7.19973 6.25 7.04076 6.25 6.875V5.625C6.25 5.45924 6.31585 5.30027 6.43306 5.18306C6.55027 5.06585 6.70924 5 6.875 5C7.04076 5 7.19973 5.06585 7.31694 5.18306C7.43415 5.30027 7.5 5.45924 7.5 5.625ZM7.5 10.625V11.875C7.5 12.0408 7.43415 12.1997 7.31694 12.3169C7.19973 12.4342 7.04076 12.5 6.875 12.5C6.70924 12.5 6.55027 12.4342 6.43306 12.3169C6.31585 12.1997 6.25 12.0408 6.25 11.875V10.625C6.25 10.4592 6.31585 10.3003 6.43306 10.1831C6.55027 10.0658 6.70924 10 6.875 10C7.04076 10 7.19973 10.0658 7.31694 10.1831C7.43415 10.3003 7.5 10.4592 7.5 10.625Z" ></path>
  </symbol>
  <symbol xmlns="http://www.w3.org/2000/svg" viewBox="0 0 20 20" id="icon-house-tech">
    <path fill="currentColor" d="M18.1251 3.125C17.2601 3.125 15.6251 3.51688 15.6251 5C15.6146 5.53416 15.745 6.06166 16.0032 6.52937C16.1754 6.82318 16.261 7.15966 16.2501 7.5C16.2501 7.9375 15.4645 8.25 14.9064 8.385L14.2145 7.6875C14.1565 7.62837 14.0874 7.58135 14.0111 7.54916C13.9348 7.51697 13.8529 7.50026 13.7701 7.5H9.3751C7.58854 7.50197 5.87291 8.19931 4.59162 9.44433C3.31032 10.6893 2.56399 12.3842 2.51072 14.17L1.35509 15.9031C1.29229 15.9973 1.25623 16.1067 1.25074 16.2197C1.24525 16.3327 1.27054 16.4451 1.32392 16.5449C1.3773 16.6446 1.45677 16.728 1.55384 16.7862C1.65091 16.8443 1.76194 16.875 1.87509 16.875H16.8751C17.0409 16.875 17.1998 16.8092 17.317 16.6919C17.4343 16.5747 17.5001 16.4158 17.5001 16.25V14.375C17.5001 14.2092 17.4343 14.0503 17.317 13.9331C17.1998 13.8158 17.0409 13.75 16.8751 13.75H16.2501V10C16.2496 9.83613 16.1847 9.67901 16.0695 9.5625L15.8951 9.38625C16.6482 9.08938 17.5001 8.53 17.5001 7.5C17.5116 6.96612 17.3822 6.43864 17.1251 5.97063C16.9519 5.67715 16.8652 5.34065 16.8751 5C16.8751 4.4125 18.1032 4.375 18.1251 4.375C18.2909 4.375 18.4498 4.30915 18.567 4.19194C18.6843 4.07473 18.7501 3.91576 18.7501 3.75C18.7501 3.58424 18.6843 3.42527 18.567 3.30806C18.4498 3.19085 18.2909 3.125 18.1251 3.125ZM9.3751 8.75H13.5095L15.0001 10.2569V13.75H3.78447C3.93993 12.3756 4.59565 11.1064 5.62666 10.1843C6.65767 9.2622 7.9919 8.75167 9.3751 8.75ZM16.2501 15V15.625H3.04322L3.45947 15H16.2501ZM14.3876 10.625C14.3876 10.7483 14.3511 10.8689 14.2827 10.9716C14.2143 11.0742 14.117 11.1543 14.0032 11.2018C13.8894 11.2493 13.764 11.262 13.643 11.2384C13.5219 11.2148 13.4105 11.1559 13.3229 11.0691C13.2352 10.9823 13.1752 10.8715 13.1504 10.7507C13.1256 10.6299 13.1371 10.5044 13.1834 10.3901C13.2298 10.2758 13.3089 10.1778 13.4108 10.1084C13.5128 10.0389 13.633 10.0012 13.7564 10H13.7626C13.9284 10 14.0873 10.0658 14.2045 10.1831C14.3218 10.3003 14.3876 10.4592 14.3876 10.625ZM11.5751 9.5625C11.5172 9.50345 11.4482 9.45646 11.372 9.42428C11.2958 9.39209 11.214 9.37534 11.1314 9.375H9.3751C8.5466 9.37599 7.75232 9.70555 7.16649 10.2914C6.58065 10.8772 6.25109 11.6715 6.2501 12.5C6.2501 12.6658 6.31595 12.8247 6.43316 12.9419C6.55037 13.0592 6.70934 13.125 6.8751 13.125H11.8751C12.0409 13.125 12.1998 13.0592 12.317 12.9419C12.4343 12.8247 12.5001 12.6658 12.5001 12.5V10.75C12.4996 10.5861 12.4347 10.429 12.3195 10.3125L11.5751 9.5625ZM11.2501 11.875H7.60697C7.73671 11.5097 7.97629 11.1934 8.29284 10.9697C8.6094 10.7459 8.98743 10.6255 9.3751 10.625H10.8751L11.2501 11.0069V11.875Z" ></path>
  </symbol>
  <symbol xmlns="http://www.w3.org/2000/svg" viewBox="0 0 20 20" id="icon-inside-tech">
    <g fill="currentColor">
      <path d="M16.875 1.25H3.125C2.09125 1.25 1.25 2.09125 1.25 3.125V16.875C1.25 17.9088 2.09125 18.75 3.125 18.75H16.875C17.9088 18.75 18.75 17.9088 18.75 16.875V3.125C18.75 2.09125 17.9088 1.25 16.875 1.25ZM17.5 16.875C17.5 17.2194 17.2194 17.5 16.875 17.5H3.125C2.78062 17.5 2.5 17.2194 2.5 16.875V3.125C2.5 2.78062 2.78062 2.5 3.125 2.5H16.875C17.2194 2.5 17.5 2.78062 17.5 3.125V16.875Z" ></path>
      <path d="M13.5938 3.63281C12.0431 3.63281 10.7812 4.89469 10.7812 6.44531C10.7812 7.99594 12.0431 9.25781 13.5938 9.25781C15.1444 9.25781 16.4062 7.99594 16.4062 6.44531C16.4062 4.89469 15.1444 3.63281 13.5938 3.63281ZM13.5938 8.00781C12.7325 8.00781 12.0312 7.30656 12.0312 6.44531C12.0312 5.58406 12.7325 4.88281 13.5938 4.88281C14.455 4.88281 15.1562 5.58406 15.1562 6.44531C15.1562 7.30656 14.455 8.00781 13.5938 8.00781Z" ></path>
      <path d="M6.44531 10.7812C4.89469 10.7812 3.63281 12.0431 3.63281 13.5938C3.63281 15.1444 4.89469 16.4062 6.44531 16.4062C7.99594 16.4062 9.25781 15.1444 9.25781 13.5938C9.25781 12.0431 7.99594 10.7812 6.44531 10.7812ZM6.44531 15.1562C5.58406 15.1562 4.88281 14.455 4.88281 13.5938C4.88281 12.7325 5.58406 12.0312 6.44531 12.0312C7.30656 12.0312 8.00781 12.7325 8.00781 13.5938C8.00781 14.455 7.30656 15.1562 6.44531 15.1562Z" ></path>
      <path d="M6.44531 3.63281C4.89469 3.63281 3.63281 4.89469 3.63281 6.44531C3.63281 7.99594 4.89469 9.25781 6.44531 9.25781C7.99594 9.25781 9.25781 7.99594 9.25781 6.44531C9.25781 4.89469 7.99594 3.63281 6.44531 3.63281ZM6.44531 8.00781C5.58406 8.00781 4.88281 7.30656 4.88281 6.44531C4.88281 5.58406 5.58406 4.88281 6.44531 4.88281C7.30656 4.88281 8.00781 5.58406 8.00781 6.44531C8.00781 7.30656 7.30656 8.00781 6.44531 8.00781Z"></path>
      <path d="M13.2812 16.4062C15.0044 16.4062 16.4062 15.0044 16.4062 13.2812C16.4062 11.5581 15.0044 10.1562 13.2812 10.1562C11.5581 10.1562 10.1562 11.5581 10.1562 13.2812C10.1562 15.0044 11.5581 16.4062 13.2812 16.4062ZM13.2812 11.4062C14.315 11.4062 15.1562 12.2475 15.1562 13.2812C15.1562 14.315 14.315 15.1562 13.2812 15.1562C12.2475 15.1562 11.4062 14.315 11.4062 13.2812C11.4062 12.2475 12.2475 11.4062 13.2812 11.4062Z"></path>
    </g>
  </symbol>
  <symbol xmlns="http://www.w3.org/2000/svg" viewBox="0 0 20 20" id="icon-kitchen-stove">
    <path fill="currentColor" d="M16.6104 1.25H3.38941C2.72656 1.25 2.1875 1.78906 2.1875 2.45192L2.1877 17.5481C2.1877 18.2109 2.72676 18.75 3.38961 18.75H16.6106C17.2734 18.75 17.8125 18.2109 17.8125 17.5481L17.8123 2.45192C17.8123 1.78906 17.2732 1.25 16.6104 1.25ZM16.6104 2.45192L16.6106 6.05769H3.38941V2.45192H16.6104ZM3.38961 17.5481L3.38941 7.25962H16.6106L16.6114 17.5481H3.38961ZM14.2066 8.46154H5.79322C5.13037 8.46154 4.59132 9.0006 4.59132 9.66346V15.1562C4.59132 15.8191 5.13037 16.3582 5.79322 16.3582H14.2066C14.8694 16.3582 15.4085 15.8191 15.4085 15.1562V9.66346C15.4085 9.0006 14.8694 8.46154 14.2066 8.46154ZM5.79322 15.1562V9.66346H14.2066L14.2074 15.1562H5.79322ZM4.59132 4.25481C4.59132 3.92288 4.86034 3.65385 5.19227 3.65385C5.5242 3.65385 5.79322 3.92288 5.79322 4.25481C5.79322 4.58674 5.5242 4.85577 5.19227 4.85577C4.86034 4.85577 4.59132 4.58674 4.59132 4.25481ZM6.39418 4.25481C6.39418 3.92288 6.6632 3.65385 6.99513 3.65385C7.32706 3.65385 7.59609 3.92288 7.59609 4.25481C7.59609 4.58674 7.32706 4.85577 6.99513 4.85577C6.6632 4.85577 6.39418 4.58674 6.39418 4.25481ZM14.2066 4.25481C14.2066 3.92288 14.4756 3.65385 14.8075 3.65385C15.1395 3.65385 15.4085 3.92288 15.4085 4.25481C15.4085 4.58674 15.1395 4.85577 14.8075 4.85577C14.4756 4.85577 14.2066 4.58674 14.2066 4.25481ZM12.4037 4.25481C12.4037 3.92288 12.6727 3.65385 13.0047 3.65385C13.3366 3.65385 13.6056 3.92288 13.6056 4.25481C13.6056 4.58674 13.3366 4.85577 13.0047 4.85577C12.6727 4.85577 12.4037 4.58674 12.4037 4.25481ZM8.79799 4.25481C8.79799 3.92288 9.06702 3.65385 9.39895 3.65385H10.6009C10.9328 3.65385 11.2018 3.92288 11.2018 4.25481C11.2018 4.58674 10.9328 4.85577 10.6009 4.85577H9.39895C9.06702 4.85577 8.79799 4.58674 8.79799 4.25481Z"></path>
  </symbol>
  <symbol xmlns="http://www.w3.org/2000/svg" viewBox="0 0 20 20" id="icon-kitchen-tech">
    <path fill="currentColor" d="M18.125 6.25C18.2908 6.25 18.4497 6.18415 18.5669 6.06694C18.6842 5.94973 18.75 5.79076 18.75 5.625V3.125C18.75 2.62772 18.5525 2.15081 18.2008 1.79917C17.8492 1.44754 17.3723 1.25 16.875 1.25H3.125C2.62772 1.25 2.15081 1.44754 1.79917 1.79917C1.44754 2.15081 1.25 2.62772 1.25 3.125V5.625C1.25 5.79076 1.31585 5.94973 1.43306 6.06694C1.55027 6.18415 1.70924 6.25 1.875 6.25H3.125V15C2.62772 15 2.15081 15.1975 1.79917 15.5492C1.44754 15.9008 1.25 16.3777 1.25 16.875V18.125C1.25 18.2908 1.31585 18.4497 1.43306 18.5669C1.55027 18.6842 1.70924 18.75 1.875 18.75H6.25C6.33225 18.7505 6.41379 18.7347 6.48994 18.7036C6.56609 18.6725 6.63535 18.6267 6.69375 18.5687L7.13125 18.125H12.8687L13.3063 18.5687C13.3647 18.6267 13.4339 18.6725 13.5101 18.7036C13.5862 18.7347 13.6677 18.7505 13.75 18.75H18.125C18.2908 18.75 18.4497 18.6842 18.5669 18.5669C18.6842 18.4497 18.75 18.2908 18.75 18.125V16.875C18.75 16.3777 18.5525 15.9008 18.2008 15.5492C17.8492 15.1975 17.3723 15 16.875 15V6.25H18.125ZM2.5 3.125C2.5 2.95924 2.56585 2.80027 2.68306 2.68306C2.80027 2.56585 2.95924 2.5 3.125 2.5H16.875C17.0408 2.5 17.1997 2.56585 17.3169 2.68306C17.4342 2.80027 17.5 2.95924 17.5 3.125V5H13.125V4.375C13.125 4.20924 13.0592 4.05027 12.9419 3.93306C12.8247 3.81585 12.6658 3.75 12.5 3.75H7.5C7.33424 3.75 7.17527 3.81585 7.05806 3.93306C6.94085 4.05027 6.875 4.20924 6.875 4.375V5H2.5V3.125ZM8.75 8.125V7.5H11.25V8.125H8.75ZM11.875 6.25H8.125V5H11.875V6.25ZM17.5 16.875V17.5H14.0063L13.5687 17.0563C13.5103 16.9983 13.4411 16.9525 13.3649 16.9214C13.2888 16.8903 13.2073 16.8745 13.125 16.875H6.875C6.79275 16.8745 6.71121 16.8903 6.63506 16.9214C6.55891 16.9525 6.48965 16.9983 6.43125 17.0563L5.99375 17.5H2.5V16.875C2.5 16.7092 2.56585 16.5503 2.68306 16.4331C2.80027 16.3158 2.95924 16.25 3.125 16.25H16.875C17.0408 16.25 17.1997 16.3158 17.3169 16.4331C17.4342 16.5503 17.5 16.7092 17.5 16.875ZM8.2375 12.5H11.7625L11.3438 15H8.65625L8.2375 12.5ZM15.625 15H12.6125L13.125 11.975C13.1396 11.885 13.1343 11.7928 13.1095 11.705C13.0847 11.6172 13.041 11.536 12.9814 11.4669C12.9219 11.3978 12.8479 11.3426 12.7647 11.3051C12.6816 11.2676 12.5912 11.2488 12.5 11.25H7.5C7.40879 11.2488 7.31842 11.2676 7.23525 11.3051C7.15208 11.3426 7.07812 11.3978 7.01856 11.4669C6.959 11.536 6.91528 11.6172 6.89048 11.705C6.86568 11.7928 6.8604 11.885 6.875 11.975L7.3875 15H4.375V6.25H6.875V6.875C6.875 7.04076 6.94085 7.19973 7.05806 7.31694C7.17527 7.43415 7.33424 7.5 7.5 7.5V8.75C7.5 8.91576 7.56585 9.07473 7.68306 9.19194C7.80027 9.30915 7.95924 9.375 8.125 9.375H9.375C9.375 9.54076 9.44085 9.69973 9.55806 9.81694C9.67527 9.93415 9.83424 10 10 10C10.1658 10 10.3247 9.93415 10.4419 9.81694C10.5592 9.69973 10.625 9.54076 10.625 9.375H11.875C12.0408 9.375 12.1997 9.30915 12.3169 9.19194C12.4342 9.07473 12.5 8.91576 12.5 8.75V7.5C12.6658 7.5 12.8247 7.43415 12.9419 7.31694C13.0592 7.19973 13.125 7.04076 13.125 6.875V6.25H15.625V15ZM15 3.75C15 3.58424 15.0658 3.42527 15.1831 3.30806C15.3003 3.19085 15.4592 3.125 15.625 3.125H16.25C16.4158 3.125 16.5747 3.19085 16.6919 3.30806C16.8092 3.42527 16.875 3.58424 16.875 3.75C16.875 3.91576 16.8092 4.07473 16.6919 4.19194C16.5747 4.30915 16.4158 4.375 16.25 4.375H15.625C15.4592 4.375 15.3003 4.30915 15.1831 4.19194C15.0658 4.07473 15 3.91576 15 3.75ZM3.75 4.375C3.58424 4.375 3.42527 4.30915 3.30806 4.19194C3.19085 4.07473 3.125 3.91576 3.125 3.75C3.125 3.58424 3.19085 3.42527 3.30806 3.30806C3.42527 3.19085 3.58424 3.125 3.75 3.125H4.375C4.54076 3.125 4.69973 3.19085 4.81694 3.30806C4.93415 3.42527 5 3.58424 5 3.75C5 3.91576 4.93415 4.07473 4.81694 4.19194C4.69973 4.30915 4.54076 4.375 4.375 4.375H3.75Z" ></path>
  </symbol>
  <symbol xmlns="http://www.w3.org/2000/svg" viewBox="0 0 20 20" id="icon-pc">
    <path fill="currentColor" d="M18.125 13.925V3.75C18.125 3.41848 17.9933 3.10054 17.7589 2.86612C17.5245 2.6317 17.2065 2.5 16.875 2.5H3.125C2.79348 2.5 2.47554 2.6317 2.24112 2.86612C2.0067 3.10054 1.875 3.41848 1.875 3.75V13.925C1.68608 14.0341 1.52899 14.1907 1.41934 14.3793C1.3097 14.5679 1.25132 14.7819 1.25 15V15.625C1.25 16.1223 1.44754 16.5992 1.79917 16.9508C2.15081 17.3025 2.62772 17.5 3.125 17.5H16.875C17.3723 17.5 17.8492 17.3025 18.2008 16.9508C18.5525 16.5992 18.75 16.1223 18.75 15.625V15C18.7487 14.7819 18.6903 14.5679 18.5807 14.3793C18.471 14.1907 18.3139 14.0341 18.125 13.925ZM3.125 3.75H16.875V13.75H3.125V3.75ZM17.5 15.625C17.5 15.7908 17.4342 15.9497 17.3169 16.0669C17.1997 16.1842 17.0408 16.25 16.875 16.25H3.125C2.95924 16.25 2.80027 16.1842 2.68306 16.0669C2.56585 15.9497 2.5 15.7908 2.5 15.625V15H17.5V15.625ZM4.375 6.06875C4.25086 6.06947 4.12932 6.03321 4.02587 5.96458C3.92242 5.89596 3.84175 5.79808 3.79414 5.68343C3.74654 5.56877 3.73416 5.44254 3.75858 5.32082C3.78299 5.19911 3.84311 5.08742 3.93125 5L4.375 4.55625C4.4921 4.43984 4.65051 4.3745 4.81562 4.3745C4.98074 4.3745 5.13915 4.43984 5.25625 4.55625C5.31483 4.61435 5.36133 4.68348 5.39306 4.75964C5.42479 4.8358 5.44112 4.91749 5.44112 5C5.44112 5.08251 5.42479 5.1642 5.39306 5.24036C5.36133 5.31652 5.31483 5.38565 5.25625 5.44375L4.81875 5.88125C4.76087 5.9403 4.69184 5.98729 4.61567 6.01947C4.53949 6.05166 4.45769 6.06841 4.375 6.06875ZM7.5 5C7.61641 5.1171 7.68175 5.27551 7.68175 5.44062C7.68175 5.60574 7.61641 5.76415 7.5 5.88125L5.25625 8.125C5.13984 8.24047 4.98271 8.30556 4.81875 8.30625C4.7365 8.30673 4.65496 8.29096 4.57881 8.25986C4.50266 8.22875 4.4334 8.18293 4.375 8.125C4.25859 8.0079 4.19325 7.84949 4.19325 7.68437C4.19325 7.51926 4.25859 7.36085 4.375 7.24375L6.5875 5C6.64596 4.93756 6.71662 4.88778 6.7951 4.85374C6.87358 4.81971 6.95821 4.80215 7.04375 4.80215C7.12929 4.80215 7.21392 4.81971 7.2924 4.85374C7.37088 4.88778 7.44154 4.93756 7.5 5Z" ></path>
  </symbol>
  <symbol xmlns="http://www.w3.org/2000/svg" viewBox="0 0 20 20" id="icon-phone">
    <path fill="currentColor" d="M17.5 13.6833V16.63C17.5001 16.841 17.4202 17.0441 17.2763 17.1985C17.1325 17.3528 16.9355 17.4469 16.725 17.4617C16.3608 17.4867 16.0633 17.5 15.8333 17.5C8.46917 17.5 2.5 11.5308 2.5 4.16667C2.5 3.93667 2.5125 3.63917 2.53833 3.275C2.5531 3.06454 2.64715 2.86751 2.8015 2.72367C2.95585 2.57984 3.15902 2.4999 3.37 2.5H6.31667C6.42003 2.4999 6.51975 2.53822 6.59644 2.60752C6.67313 2.67682 6.72133 2.77215 6.73167 2.875C6.75083 3.06667 6.76833 3.21917 6.785 3.335C6.95061 4.49077 7.29 5.61486 7.79167 6.66917C7.87083 6.83583 7.81917 7.035 7.66917 7.14167L5.87083 8.42667C6.97038 10.9887 9.01212 13.0305 11.5742 14.13L12.8575 12.335C12.91 12.2617 12.9865 12.2091 13.0737 12.1864C13.161 12.1637 13.2535 12.1723 13.335 12.2108C14.3892 12.7116 15.513 13.0501 16.6683 13.215C16.7842 13.2317 16.9367 13.25 17.1267 13.2683C17.2294 13.2789 17.3245 13.3271 17.3936 13.4038C17.4628 13.4805 17.501 13.5801 17.5008 13.6833H17.5Z"></path>
  </symbol>

  <symbol xmlns="http://www.w3.org/2000/svg" viewBox="0 0 20 20" id="icon-smart-home">
    <path fill="currentColor" d="M18.5689 9.55624L10.4439 1.43124C10.3858 1.37266 10.3166 1.32617 10.2405 1.29444C10.1643 1.2627 10.0826 1.24637 10.0001 1.24637C9.91761 1.24637 9.83592 1.2627 9.75976 1.29444C9.68359 1.32617 9.61447 1.37266 9.55637 1.43124L2.68137 8.30624L1.43137 9.55624C1.31368 9.67393 1.24756 9.83355 1.24756 9.99999C1.24756 10.1664 1.31368 10.3261 1.43137 10.4437C1.54906 10.5614 1.70868 10.6275 1.87512 10.6275C2.04155 10.6275 2.20118 10.5614 2.31887 10.4437L2.50012 10.2562V18.125C2.50012 18.2908 2.56596 18.4497 2.68317 18.5669C2.80038 18.6841 2.95936 18.75 3.12512 18.75H16.8126C16.9784 18.75 17.1373 18.6841 17.2546 18.5669C17.3718 18.4497 17.4376 18.2908 17.4376 18.125V10.1937L17.6814 10.4437C17.7395 10.5023 17.8086 10.5488 17.8848 10.5806C17.9609 10.6123 18.0426 10.6286 18.1251 10.6286C18.2076 10.6286 18.2893 10.6123 18.3655 10.5806C18.4416 10.5488 18.5108 10.5023 18.5689 10.4437C18.6274 10.3856 18.6739 10.3165 18.7057 10.2404C18.7374 10.1642 18.7537 10.0825 18.7537 9.99999C18.7537 9.91749 18.7374 9.83579 18.7057 9.75963C18.6739 9.68347 18.6274 9.61434 18.5689 9.55624ZM11.2501 17.5H8.75012V13.125H11.2501V17.5ZM16.1876 17.5H12.5001V12.5C12.5001 12.3342 12.4343 12.1753 12.3171 12.0581C12.1998 11.9408 12.0409 11.875 11.8751 11.875H8.12512C7.95936 11.875 7.80038 11.9408 7.68317 12.0581C7.56596 12.1753 7.50012 12.3342 7.50012 12.5V17.5H3.75012V9.00624L10.0001 2.75624L16.1876 8.94374V17.5Z" ></path>
  </symbol>
  <symbol xmlns="http://www.w3.org/2000/svg" viewBox="0 0 20 20" id="icon-smartphone">
    <path fill="currentColor" d="M13.75 1.25H6.25C5.91848 1.25 5.60054 1.3817 5.36612 1.61612C5.1317 1.85054 5 2.16848 5 2.5V17.5C5 17.8315 5.1317 18.1495 5.36612 18.3839C5.60054 18.6183 5.91848 18.75 6.25 18.75H13.75C14.0815 18.75 14.3995 18.6183 14.6339 18.3839C14.8683 18.1495 15 17.8315 15 17.5V2.5C15 2.16848 14.8683 1.85054 14.6339 1.61612C14.3995 1.3817 14.0815 1.25 13.75 1.25ZM6.25 17.5V2.5H13.75V17.5H6.25ZM10.625 16.25C10.625 16.3736 10.5883 16.4945 10.5197 16.5972C10.451 16.7 10.3534 16.7801 10.2392 16.8274C10.125 16.8747 9.99931 16.8871 9.87807 16.863C9.75683 16.8389 9.64547 16.7794 9.55806 16.6919C9.47065 16.6045 9.41112 16.4932 9.38701 16.3719C9.36289 16.2507 9.37527 16.125 9.42257 16.0108C9.46988 15.8966 9.54999 15.799 9.65277 15.7303C9.75555 15.6617 9.87639 15.625 10 15.625C10.1658 15.625 10.3247 15.6908 10.4419 15.8081C10.5592 15.9253 10.625 16.0842 10.625 16.25ZM7.5 4.81875C7.37586 4.81947 7.25432 4.78321 7.15087 4.71458C7.04742 4.64596 6.96675 4.54808 6.91914 4.43343C6.87154 4.31877 6.85916 4.19254 6.88358 4.07082C6.90799 3.94911 6.96811 3.83742 7.05625 3.75L7.5 3.30625C7.6171 3.18984 7.77551 3.1245 7.94062 3.1245C8.10574 3.1245 8.26415 3.18984 8.38125 3.30625C8.43983 3.36435 8.48633 3.43348 8.51806 3.50964C8.54979 3.5858 8.56612 3.66749 8.56612 3.75C8.56612 3.83251 8.54979 3.9142 8.51806 3.99036C8.48633 4.06652 8.43983 4.13565 8.38125 4.19375L7.94375 4.63125C7.88587 4.6903 7.81684 4.73729 7.74067 4.76947C7.66449 4.80166 7.58269 4.81841 7.5 4.81875ZM10.625 3.75C10.7414 3.8671 10.8067 4.02551 10.8067 4.19062C10.8067 4.35574 10.7414 4.51415 10.625 4.63125L8.38125 6.875C8.26484 6.99047 8.10771 7.05556 7.94375 7.05625C7.8615 7.05673 7.77996 7.04096 7.70381 7.00986C7.62766 6.97875 7.5584 6.93293 7.5 6.875C7.38359 6.7579 7.31825 6.59949 7.31825 6.43437C7.31825 6.26926 7.38359 6.11085 7.5 5.99375L9.7125 3.75C9.77096 3.68756 9.84162 3.63778 9.9201 3.60374C9.99858 3.56971 10.0832 3.55215 10.1688 3.55215C10.2543 3.55215 10.3389 3.56971 10.4174 3.60374C10.4959 3.63778 10.5665 3.68756 10.625 3.75Z" ></path>
  </symbol>
  <symbol xmlns="http://www.w3.org/2000/svg" viewBox="0 0 20 20" id="icon-sports">
    <path fill="currentColor" d="M15.6999 8.79999C15.3747 8.79999 15.0603 8.84439 14.7581 8.91979L12.7421 4.59999H15.3999C15.7309 4.59999 15.9999 4.86919 15.9999 5.19999C15.9999 5.53079 15.7309 5.79999 15.3999 5.79999C15.0683 5.79999 14.7999 6.06859 14.7999 6.39999C14.7999 6.73139 15.0683 6.99999 15.3999 6.99999C16.3925 6.99999 17.1999 6.19259 17.1999 5.19999C17.1999 4.20739 16.3925 3.39999 15.3999 3.39999H11.7999C11.5949 3.39999 11.4039 3.50459 11.2937 3.67779C11.1835 3.85059 11.1695 4.06799 11.2561 4.25379L12.2577 6.39999H7.9707L7.3707 5.19999H8.1999C8.5315 5.19999 8.7999 4.93139 8.7999 4.59999C8.7999 4.26859 8.5315 3.99999 8.1999 3.99999H5.1999C4.8683 3.99999 4.5999 4.26859 4.5999 4.59999C4.5999 4.93139 4.8683 5.19999 5.1999 5.19999H6.0291L6.9159 6.97379L5.6685 9.05279C5.2419 8.89199 4.7819 8.79999 4.2999 8.79999C2.1495 8.79999 0.399902 10.5496 0.399902 12.7C0.399902 14.8504 2.1495 16.6 4.2999 16.6C6.1401 16.6 7.6829 15.3172 8.0909 13.6H9.3999C9.6055 13.6 9.7965 13.4948 9.9067 13.321L13.1199 8.24739L13.6519 9.38739C12.5425 10.0758 11.7999 11.3012 11.7999 12.7C11.7999 14.8504 13.5495 16.6 15.6999 16.6C17.8503 16.6 19.5999 14.8504 19.5999 12.7C19.5999 10.5496 17.8503 8.79999 15.6999 8.79999ZM4.2999 15.4C2.8111 15.4 1.5999 14.1888 1.5999 12.7C1.5999 11.2112 2.8111 9.99999 4.2999 9.99999C4.5553 9.99999 4.7977 10.047 5.0319 10.1136L3.4853 12.6912C3.3739 12.8766 3.3711 13.1076 3.4777 13.2956C3.5843 13.4836 3.7837 13.6 3.9999 13.6H6.8341C6.4613 14.6454 5.4717 15.4 4.2999 15.4ZM6.9695 12.4H5.0599L6.0855 10.6904C6.5707 11.1218 6.8933 11.7212 6.9695 12.4ZM9.0695 12.4H8.1847C8.0991 11.284 7.5435 10.2994 6.7141 9.64299L7.9397 7.59999H12.1093L9.0695 12.4ZM15.6999 15.4C14.2111 15.4 12.9999 14.1888 12.9999 12.7C12.9999 11.7822 13.4621 10.9726 14.1639 10.4844L15.4563 13.2536C15.5581 13.472 15.7743 13.6 16.0005 13.6C16.0855 13.6 16.1715 13.5822 16.2537 13.5438C16.5543 13.4038 16.6837 13.0466 16.5437 12.7464L15.2819 10.0424C15.4191 10.0206 15.5567 9.99999 15.6999 9.99999C17.1887 9.99999 18.3999 11.2112 18.3999 12.7C18.3999 14.1888 17.1887 15.4 15.6999 15.4Z" ></path>
  </symbol>
  <symbol xmlns="http://www.w3.org/2000/svg" viewBox="0 0 20 20" id="icon-star">
    <path fill="currentColor" d="M18.6981 7.8025C18.6002 7.56052 18.43 7.35464 18.2108 7.21292C17.9916 7.07121 17.734 7.00057 17.4731 7.01063L12.9106 6.61063L11.1606 2.19875C10.6606 0.935 9.34812 0.9325 8.84812 2.19875L7.09812 6.60688L2.53062 7.01063C2.26971 7.00062 2.01205 7.07127 1.79273 7.21297C1.57342 7.35467 1.40311 7.56052 1.305 7.8025C1.23721 8.0553 1.24883 8.32284 1.33828 8.56881C1.42772 8.81478 1.59066 9.02729 1.805 9.1775L5.32187 12.3787L4.26125 17.1194C4.16469 17.3714 4.15067 17.6476 4.22122 17.908C4.29176 18.1685 4.44322 18.3999 4.65375 18.5687C4.88357 18.7091 5.15209 18.7726 5.42042 18.7501C5.68876 18.7276 5.94297 18.6203 6.14625 18.4438L10 15.9725L13.8575 18.4431C14.0657 18.61 14.3188 18.711 14.5847 18.7332C14.8505 18.7555 15.117 18.698 15.35 18.5681C15.5603 18.3992 15.7115 18.168 15.782 17.9076C15.8524 17.6472 15.8384 17.3712 15.7419 17.1194L14.6862 12.3831L18.2044 9.17688C18.4176 9.02601 18.5793 8.81325 18.6676 8.56743C18.756 8.3216 18.7666 8.05457 18.6981 7.8025ZM13.8425 11.4556C13.6856 11.608 13.5692 11.797 13.5038 12.0057C13.4383 12.2143 13.4258 12.436 13.4675 12.6506L14.5187 17.3794L10.6725 14.9162C10.4702 14.7945 10.2386 14.7302 10.0025 14.7302C9.76641 14.7302 9.53478 14.7945 9.3325 14.9162L5.48375 17.38L6.53562 12.6506C6.57673 12.436 6.56399 12.2145 6.49855 12.0059C6.43311 11.7974 6.31701 11.6083 6.16062 11.4556L2.64875 8.2575L7.20437 7.855C7.43172 7.82772 7.64793 7.74128 7.83141 7.6043C8.0149 7.46732 8.15923 7.28459 8.25 7.07438L10 2.675L11.75 7.07438C11.8407 7.28491 11.9851 7.46787 12.1689 7.6049C12.3526 7.74192 12.5692 7.82818 12.7969 7.855L17.3531 8.2575L13.8425 11.4556Z" ></path>
  </symbol>

  <symbol xmlns="http://www.w3.org/2000/svg" viewBox="0 0 20 20" id="icon-stroyka">
    <g fill="currentColor">
      <path d="M4.34644 4.38544C4.02284 4.38544 3.7605 4.64778 3.7605 4.97137V6.22656C3.7605 6.55016 4.02284 6.8125 4.34644 6.8125C4.67003 6.8125 4.93237 6.55016 4.93237 6.22656V4.97137C4.93237 4.64778 4.67003 4.38544 4.34644 4.38544Z" ></path>
      <path d="M6.85669 4.38544C6.5331 4.38544 6.27075 4.64778 6.27075 4.97137V6.22656C6.27075 6.55016 6.5331 6.8125 6.85669 6.8125C7.18028 6.8125 7.44263 6.55016 7.44263 6.22656V4.97137C7.44263 4.64778 7.18028 4.38544 6.85669 4.38544Z" ></path>
      <path d="M9.36719 4.38544C9.04359 4.38544 8.78125 4.64778 8.78125 4.97137V6.22656C8.78125 6.55016 9.04359 6.8125 9.36719 6.8125C9.69078 6.8125 9.95312 6.55016 9.95312 6.22656V4.97137C9.95312 4.64778 9.69078 4.38544 9.36719 4.38544Z" ></path>
      <path d="M18.1641 5.01301H16.6332C16.492 4.43039 15.8316 3.13019 14.2344 3.13019H14.0954C13.7445 2.08883 12.7777 1.875 12.3516 1.875H3.09117C2.07633 1.875 1.25 2.70121 1.25 3.71613V7.48175C1.25 8.49507 2.07402 9.32289 3.09117 9.32289H3.39832L1.31188 13.4958C1.27051 13.5785 1.25 13.6682 1.25 13.7578V17.5234C1.25 17.847 1.51234 18.1094 1.83594 18.1094H8.73957C9.06316 18.1094 9.32551 17.847 9.32551 17.5234V16.2682C9.32551 14.8678 8.39078 13.6823 7.11266 13.301L7.84648 11.8334H9.36719C10.3824 11.8334 11.2084 11.0074 11.2084 9.99222V9.32296H12.3516C13.4593 9.32296 13.9627 8.47086 14.0975 8.06777H14.2344C15.8318 8.06777 16.492 6.76816 16.6332 6.18496H18.1641C18.4877 6.18496 18.75 5.92261 18.75 5.59902C18.75 5.27543 18.4877 5.01301 18.1641 5.01301ZM4.70848 9.32293H7.79152L5.86703 13.1719H2.78402L4.70848 9.32293ZM8.15363 16.2682V16.9375H2.42188V14.3437H6.22918C7.29035 14.3437 8.15363 15.2071 8.15363 16.2682ZM10.0365 9.99218C10.0365 10.3612 9.73621 10.6614 9.36719 10.6614H8.43242L9.10168 9.32289H10.0364V9.99218H10.0365ZM12.3516 8.15105H3.09117C2.72059 8.15105 2.42188 7.84933 2.42188 7.48179V3.71617C2.42188 3.34758 2.7223 3.04687 3.09117 3.04687H12.3516C12.7192 3.04687 13.0208 3.34566 13.0208 3.71613V7.48175C13.0208 7.85152 12.7207 8.15105 12.3516 8.15105ZM14.2344 6.89582H14.1927V4.30207H14.2344C14.9506 4.30207 15.5312 4.88172 15.5312 5.59894C15.5312 6.31582 14.9517 6.89582 14.2344 6.89582Z" ></path>
    </g>
  </symbol>
  <symbol xmlns="http://www.w3.org/2000/svg" viewBox="0 0 20 20" id="icon-tv">
    <path fill="currentColor" d="M17.5 2.5H2.5C2.16848 2.5 1.85054 2.6317 1.61612 2.86612C1.3817 3.10054 1.25 3.41848 1.25 3.75V13.75C1.25 14.0815 1.3817 14.3995 1.61612 14.6339C1.85054 14.8683 2.16848 15 2.5 15H9.375V16.25H4.375C4.20924 16.25 4.05027 16.3158 3.93306 16.4331C3.81585 16.5503 3.75 16.7092 3.75 16.875C3.75 17.0408 3.81585 17.1997 3.93306 17.3169C4.05027 17.4342 4.20924 17.5 4.375 17.5H15.625C15.7908 17.5 15.9497 17.4342 16.0669 17.3169C16.1842 17.1997 16.25 17.0408 16.25 16.875C16.25 16.7092 16.1842 16.5503 16.0669 16.4331C15.9497 16.3158 15.7908 16.25 15.625 16.25H10.625V15H17.5C17.8315 15 18.1495 14.8683 18.3839 14.6339C18.6183 14.3995 18.75 14.0815 18.75 13.75V3.75C18.75 3.41848 18.6183 3.10054 18.3839 2.86612C18.1495 2.6317 17.8315 2.5 17.5 2.5ZM2.5 13.75V3.75H17.5V13.75H2.5ZM3.75 6.50625C3.66775 6.50673 3.58621 6.49096 3.51006 6.45986C3.43391 6.42875 3.36465 6.38293 3.30625 6.325C3.18984 6.2079 3.1245 6.04949 3.1245 5.88438C3.1245 5.71926 3.18984 5.56085 3.30625 5.44375L4.19375 4.55625C4.31085 4.43984 4.46926 4.3745 4.63438 4.3745C4.79949 4.3745 4.9579 4.43984 5.075 4.55625C5.13358 4.61435 5.18008 4.68348 5.21181 4.75964C5.24354 4.8358 5.25987 4.91749 5.25987 5C5.25987 5.08251 5.24354 5.1642 5.21181 5.24036C5.18008 5.31652 5.13358 5.38565 5.075 5.44375L4.19375 6.325C4.13535 6.38293 4.06609 6.42875 3.98994 6.45986C3.91379 6.49096 3.83225 6.50673 3.75 6.50625ZM7.2875 5C7.40391 5.1171 7.46925 5.27551 7.46924 5.44062C7.46925 5.60574 7.40391 5.76415 7.2875 5.88125L4.63125 8.5375C4.51484 8.65297 4.35771 8.71806 4.19375 8.71875C4.1115 8.71923 4.02996 8.70346 3.95381 8.67236C3.87766 8.64125 3.8084 8.59543 3.75 8.5375C3.69142 8.4794 3.64492 8.41027 3.61319 8.33411C3.58146 8.25795 3.56513 8.17626 3.56513 8.09375C3.56513 8.01124 3.58146 7.92955 3.61319 7.85339C3.64492 7.77723 3.69142 7.7081 3.75 7.65L6.4 5C6.4581 4.94142 6.52723 4.89492 6.60339 4.86319C6.67955 4.83146 6.76124 4.81513 6.84375 4.81513C6.92626 4.81513 7.00795 4.83146 7.08411 4.86319C7.16027 4.89492 7.2294 4.94142 7.2875 5Z" ></path>
  </symbol>
  <symbol xmlns="http://www.w3.org/2000/svg" viewBox="0 0 20 20" id="icon-washing">
    <path fill="currentColor" d="M16.25 1.25H3.75C3.41848 1.25 3.10054 1.3817 2.86612 1.61612C2.6317 1.85054 2.5 2.16848 2.5 2.5V17.5C2.5 17.8315 2.6317 18.1495 2.86612 18.3839C3.10054 18.6183 3.41848 18.75 3.75 18.75H16.25C16.5815 18.75 16.8995 18.6183 17.1339 18.3839C17.3683 18.1495 17.5 17.8315 17.5 17.5V2.5C17.5 2.16848 17.3683 1.85054 17.1339 1.61612C16.8995 1.3817 16.5815 1.25 16.25 1.25ZM16.25 2.5V5H3.75V2.5H16.25ZM3.75 17.5V6.25H16.25V17.5H3.75ZM14.375 3.75C14.375 3.58424 14.4408 3.42527 14.5581 3.30806C14.6753 3.19085 14.8342 3.125 15 3.125C15.1236 3.125 15.2445 3.16166 15.3472 3.23033C15.45 3.29901 15.5301 3.39662 15.5774 3.51082C15.6247 3.62503 15.6371 3.75069 15.613 3.87193C15.5889 3.99317 15.5294 4.10453 15.4419 4.19194C15.3545 4.27935 15.2432 4.33888 15.1219 4.36299C15.0007 4.38711 14.875 4.37473 14.7608 4.32742C14.6466 4.28012 14.549 4.20001 14.4803 4.09723C14.4117 3.99445 14.375 3.87361 14.375 3.75ZM12.5 3.75C12.5 3.58424 12.5658 3.42527 12.6831 3.30806C12.8003 3.19085 12.9592 3.125 13.125 3.125C13.2486 3.125 13.3695 3.16166 13.4722 3.23033C13.575 3.29901 13.6551 3.39662 13.7024 3.51082C13.7497 3.62503 13.7621 3.75069 13.738 3.87193C13.7139 3.99317 13.6544 4.10453 13.5669 4.19194C13.4795 4.27935 13.3682 4.33888 13.2469 4.36299C13.1257 4.38711 13 4.37473 12.8858 4.32742C12.7716 4.28012 12.674 4.20001 12.6053 4.09723C12.5367 3.99445 12.5 3.87361 12.5 3.75ZM10 6.875C9.01109 6.875 8.04439 7.16824 7.22215 7.71765C6.3999 8.26706 5.75904 9.04795 5.3806 9.96158C5.00216 10.8752 4.90315 11.8805 5.09607 12.8505C5.289 13.8204 5.7652 14.7113 6.46447 15.4105C7.16373 16.1098 8.05464 16.586 9.02455 16.7789C9.99445 16.9719 10.9998 16.8728 11.9134 16.4944C12.827 16.116 13.6079 15.4751 14.1573 14.6529C14.7068 13.8306 15 12.8639 15 11.875C15 10.5489 14.4732 9.27715 13.5355 8.33947C12.5979 7.40178 11.3261 6.875 10 6.875ZM10 15.625C9.25832 15.625 8.5333 15.4051 7.91661 14.993C7.29993 14.581 6.81928 13.9953 6.53545 13.3101C6.25162 12.6248 6.17736 11.8708 6.32206 11.1434C6.46675 10.416 6.8239 9.7478 7.34835 9.22335C7.8728 8.6989 8.54098 8.34175 9.26841 8.19706C9.99584 8.05236 10.7498 8.12662 11.4351 8.41045C12.1203 8.69428 12.706 9.17493 13.118 9.79161C13.5301 10.4083 13.75 11.1333 13.75 11.875C13.75 12.8696 13.3549 13.8234 12.6517 14.5267C11.9484 15.2299 10.9946 15.625 10 15.625ZM8.5625 10.875C8.50693 10.9408 8.43835 10.9944 8.36109 11.0324C8.28382 11.0705 8.19953 11.0921 8.11349 11.096C8.02746 11.1 7.94155 11.0861 7.86114 11.0552C7.78074 11.0244 7.70758 10.9772 7.64625 10.9167C7.58492 10.8563 7.53675 10.7838 7.50476 10.7038C7.47277 10.6239 7.45765 10.5382 7.46035 10.4521C7.46305 10.366 7.48351 10.2814 7.52045 10.2036C7.55739 10.1258 7.61 10.0565 7.675 10L8.11875 9.55625C8.23585 9.43984 8.39426 9.37451 8.55937 9.37451C8.72449 9.37451 8.8829 9.43984 9 9.55625C9.05858 9.61435 9.10508 9.68348 9.13681 9.75964C9.16854 9.8358 9.18487 9.91749 9.18487 10C9.18487 10.0825 9.16854 10.1642 9.13681 10.2404C9.10508 10.3165 9.05858 10.3856 9 10.4437L8.5625 10.875ZM10.7687 10.4375C10.8852 10.5546 10.9505 10.713 10.9505 10.8781C10.9505 11.0432 10.8852 11.2016 10.7687 11.3188L9.44375 12.6437C9.32665 12.7602 9.16824 12.8255 9.00312 12.8255C8.83801 12.8255 8.6796 12.7602 8.5625 12.6437C8.44609 12.5266 8.38075 12.3682 8.38075 12.2031C8.38075 12.038 8.44609 11.8796 8.5625 11.7625L9.8875 10.4375C10.0046 10.3211 10.163 10.2558 10.3281 10.2558C10.4932 10.2558 10.6516 10.3211 10.7687 10.4375ZM4.375 3.75C4.375 3.58424 4.44085 3.42527 4.55806 3.30806C4.67527 3.19085 4.83424 3.125 5 3.125H6.25C6.41576 3.125 6.57473 3.19085 6.69194 3.30806C6.80915 3.42527 6.875 3.58424 6.875 3.75C6.875 3.91576 6.80915 4.07473 6.69194 4.19194C6.57473 4.30915 6.41576 4.375 6.25 4.375H5C4.83424 4.375 4.67527 4.30915 4.55806 4.19194C4.44085 4.07473 4.375 3.91576 4.375 3.75Z"></path>
  </symbol>
</svg>
